<svg version="1.1" viewBox="0.0 0.0 960.0 540.0" fill="none" stroke="none" stroke-linecap="square" stroke-miterlimit="10" xmlns:xlink="http://www.w3.org/1999/xlink" xmlns="http://www.w3.org/2000/svg"><clipPath id="g2ebf029769f_0_20.0"><path d="m0 0l960.0 0l0 540.0l-960.0 0l0 -540.0z" clip-rule="nonzero"/></clipPath><g clip-path="url(#g2ebf029769f_0_20.0)"><path fill="#ffffff" d="m0 0l960.0 0l0 540.0l-960.0 0z" fill-rule="evenodd"/><path fill="#000000" fill-opacity="0.1076" d="m346.1942 255.72617l0 0c0 -73.64087 59.697723 -133.33858 133.3386 -133.33858l0 0c35.363617 0 69.27878 14.048126 94.28464 39.05397c25.005798 25.005829 39.053955 58.92102 39.053955 94.28461l0 0c0 73.64087 -59.697754 133.3386 -133.3386 133.3386l0 0c-73.64087 0 -133.3386 -59.697723 -133.3386 -133.3386zm42.847046 0l0 0c0 49.97711 40.514435 90.49158 90.49155 90.49158c49.977142 0 90.49155 -40.514465 90.49155 -90.49158l0 0c0 -49.97711 -40.514404 -90.49156 -90.49155 -90.49156l0 0c-49.97711 0 -90.49155 40.51445 -90.49155 90.49156z" fill-rule="evenodd"/><path fill="#000000" fill-opacity="0.0" d="m333.75 172.0l45.51181 26.48819" fill-rule="evenodd"/><path stroke="#65f0ac" stroke-width="2.0" stroke-linejoin="round" stroke-linecap="butt" d="m340.3012 175.81285l38.9606 22.675339" fill-rule="evenodd"/><path fill="#65f0ac" stroke="#65f0ac" stroke-width="2.0" stroke-linecap="butt" d="m334.6143 172.50302c0.91397095 -1.5704193 2.9279785 -2.102539 4.4983826 -1.1885529c1.570404 0.9139862 2.102539 2.9279785 1.1885376 4.4983826c-0.91397095 1.5704193 -2.9279785 2.102539 -4.4983826 1.1885529c-1.570404 -0.9139862 -2.102539 -2.9279785 -1.1885376 -4.4983826z" fill-rule="nonzero"/><path fill="#000000" fill-opacity="0.0" d="m93.51575 138.07086l297.29135 0l0 70.29921l-297.29135 0z" fill-rule="evenodd"/><path fill="#000000" d="m163.20062 158.374q0.75 -1.78125 1.890625 -2.75q1.15625 -0.96875 2.875 -0.96875q2.125 0 3.265625 1.375q0.859375 1.03125 0.859375 2.203125q0 1.921875 -2.421875 3.984375q1.625 0.640625 2.453125 1.828125q0.828125 1.1875 0.828125 2.78125q0 2.296875 -1.453125 3.96875q-1.90625 2.1875 -5.5 2.1875q-1.78125 0 -2.4375 -0.4375q-0.640625 -0.453125 -0.640625 -0.953125q0 -0.375 0.296875 -0.65625q0.3125 -0.296875 0.75 -0.296875q0.328125 0 0.65625 0.109375q0.21875 0.0625 1.0 0.46875q0.78125 0.40625 1.09375 0.484375q0.46875 0.15625 1.015625 0.15625q1.328125 0 2.3125 -1.03125q0.984375 -1.03125 0.984375 -2.4375q0 -1.03125 -0.453125 -2.0q-0.34375 -0.734375 -0.75 -1.109375q-0.546875 -0.515625 -1.53125 -0.9375q-0.96875 -0.4375 -1.984375 -0.4375l-0.421875 0l0 -0.390625q1.03125 -0.125 2.0625 -0.734375q1.03125 -0.609375 1.5 -1.46875q0.46875 -0.859375 0.46875 -1.890625q0 -1.34375 -0.84375 -2.171875q-0.828125 -0.828125 -2.078125 -0.828125q-2.015625 0 -3.375 2.171875l-0.421875 -0.21875zm15.296875 11.765625q0.609375 0 1.03125 0.4375q0.421875 0.421875 0.421875 1.015625q0 0.59375 -0.421875 1.015625q-0.421875 0.421875 -1.03125 0.421875q-0.59375 0 -1.015625 -0.421875q-0.421875 -0.421875 -0.421875 -1.015625q0 -0.609375 0.421875 -1.03125q0.421875 -0.421875 1.015625 -0.421875zm22.21875 -15.515625l0 6.09375l-0.484375 0q-0.234375 -1.75 -0.84375 -2.78125q-0.59375 -1.046875 -1.71875 -1.65625q-1.109375 -0.625 -2.3125 -0.625q-1.359375 0 -2.25 0.828125q-0.875 0.828125 -0.875 1.890625q0 0.796875 0.5625 1.46875q0.8125 0.96875 3.84375 2.59375q2.46875 1.328125 3.375 2.046875q0.90625 0.703125 1.390625 1.671875q0.484375 0.953125 0.484375 2.015625q0 2.0 -1.5625 3.453125q-1.546875 1.453125 -4.0 1.453125q-0.765625 0 -1.4375 -0.125q-0.40625 -0.0625 -1.671875 -0.46875q-1.265625 -0.40625 -1.609375 -0.40625q-0.328125 0 -0.515625 0.203125q-0.1875 0.1875 -0.28125 0.796875l-0.484375 0l0 -6.0625l0.484375 0q0.34375 1.90625 0.90625 2.859375q0.578125 0.9375 1.75 1.5625q1.1875 0.625 2.59375 0.625q1.625 0 2.5625 -0.859375q0.953125 -0.859375 0.953125 -2.03125q0 -0.65625 -0.359375 -1.3125q-0.359375 -0.671875 -1.109375 -1.234375q-0.515625 -0.390625 -2.78125 -1.65625q-2.265625 -1.28125 -3.21875 -2.03125q-0.953125 -0.75 -1.453125 -1.65625q-0.484375 -0.921875 -0.484375 -2.015625q0 -1.90625 1.453125 -3.265625q1.453125 -1.375 3.703125 -1.375q1.40625 0 2.984375 0.6875q0.734375 0.328125 1.03125 0.328125q0.34375 0 0.546875 -0.203125q0.21875 -0.203125 0.34375 -0.8125l0.484375 0zm5.449936 10.609375q-0.015625 2.65625 1.28125 4.171875q1.296875 1.515625 3.0625 1.515625q1.171875 0 2.03125 -0.640625q0.875 -0.65625 1.453125 -2.21875l0.40625 0.265625q-0.28125 1.78125 -1.59375 3.25q-1.3125 1.453125 -3.28125 1.453125q-2.15625 0 -3.6875 -1.671875q-1.53125 -1.671875 -1.53125 -4.5q0 -3.046875 1.5625 -4.75q1.578125 -1.71875 3.953125 -1.71875q2.0 0 3.28125 1.328125q1.296875 1.3125 1.296875 3.515625l-8.234375 0zm0 -0.75l5.515625 0q-0.0625 -1.140625 -0.28125 -1.609375q-0.328125 -0.734375 -0.96875 -1.140625q-0.640625 -0.421875 -1.34375 -0.421875q-1.078125 0 -1.9375 0.84375q-0.84375 0.828125 -0.984375 2.328125zm19.94069 3.65625q-0.46875 2.359375 -1.875 3.625q-1.40625 1.265625 -3.109375 1.265625q-2.03125 0 -3.546875 -1.703125q-1.515625 -1.703125 -1.515625 -4.609375q0 -2.8125 1.671875 -4.5625q1.671875 -1.765625 4.015625 -1.765625q1.765625 0 2.890625 0.9375q1.140625 0.9375 1.140625 1.9375q0 0.484375 -0.328125 0.796875q-0.3125 0.3125 -0.890625 0.3125q-0.765625 0 -1.15625 -0.5q-0.21875 -0.28125 -0.296875 -1.046875q-0.0625 -0.765625 -0.515625 -1.171875q-0.46875 -0.390625 -1.265625 -0.390625q-1.296875 0 -2.09375 0.96875q-1.0625 1.28125 -1.0625 3.375q0 2.125 1.046875 3.765625q1.046875 1.625 2.828125 1.625q1.28125 0 2.296875 -0.859375q0.71875 -0.609375 1.390625 -2.1875l0.375 0.1875zm12.159439 -7.390625l0 7.21875q0 2.078125 0.09375 2.546875q0.109375 0.453125 0.3125 0.640625q0.21875 0.171875 0.515625 0.171875q0.390625 0 0.90625 -0.21875l0.1875 0.453125l-3.578125 1.46875l-0.578125 0l0 -2.515625q-1.546875 1.65625 -2.359375 2.09375q-0.796875 0.421875 -1.6875 0.421875q-1.0 0 -1.75 -0.578125q-0.734375 -0.578125 -1.015625 -1.484375q-0.28125 -0.90625 -0.28125 -2.578125l0 -5.328125q0 -0.84375 -0.1875 -1.171875q-0.1875 -0.328125 -0.546875 -0.5q-0.34375 -0.171875 -1.28125 -0.15625l0 -0.484375l4.171875 0l0 7.984375q0 1.65625 0.578125 2.1875q0.578125 0.515625 1.40625 0.515625q0.546875 0 1.25 -0.34375q0.71875 -0.359375 1.703125 -1.34375l0 -6.765625q0 -1.015625 -0.375 -1.375q-0.375 -0.359375 -1.546875 -0.375l0 -0.484375l4.0625 0zm6.375 -0.359375l0 2.6875q1.484375 -2.6875 3.0625 -2.6875q0.71875 0 1.1875 0.4375q0.46875 0.4375 0.46875 1.015625q0 0.5 -0.34375 0.859375q-0.328125 0.34375 -0.796875 0.34375q-0.46875 0 -1.03125 -0.4375q-0.5625 -0.453125 -0.828125 -0.453125q-0.234375 0 -0.515625 0.265625q-0.578125 0.53125 -1.203125 1.75l0 5.71875q0 0.984375 0.234375 1.5q0.171875 0.34375 0.59375 0.578125q0.4375 0.234375 1.25 0.234375l0 0.46875l-6.109375 0l0 -0.46875q0.90625 0 1.359375 -0.28125q0.328125 -0.21875 0.453125 -0.671875q0.0625 -0.21875 0.0625 -1.265625l0 -4.609375q0 -2.09375 -0.09375 -2.484375q-0.078125 -0.390625 -0.3125 -0.578125q-0.21875 -0.1875 -0.5625 -0.1875q-0.390625 0 -0.90625 0.203125l-0.125 -0.46875l3.609375 -1.46875l0.546875 0zm8.4079895 -6.234375q0.546875 0 0.9375 0.390625q0.390625 0.390625 0.390625 0.9375q0 0.546875 -0.390625 0.9375q-0.390625 0.390625 -0.9375 0.390625q-0.546875 0 -0.9375 -0.390625q-0.390625 -0.390625 -0.390625 -0.9375q0 -0.546875 0.390625 -0.9375q0.390625 -0.390625 0.9375 -0.390625zm1.09375 6.234375l0 9.59375q0 1.109375 0.15625 1.484375q0.15625 0.375 0.46875 0.5625q0.328125 0.171875 1.171875 0.171875l0 0.46875l-5.78125 0l0 -0.46875q0.859375 0 1.15625 -0.171875q0.3125 -0.171875 0.484375 -0.5625q0.171875 -0.390625 0.171875 -1.484375l0 -4.59375q0 -1.953125 -0.109375 -2.515625q-0.09375 -0.421875 -0.296875 -0.578125q-0.1875 -0.171875 -0.53125 -0.171875q-0.359375 0 -0.875 0.203125l-0.1875 -0.46875l3.59375 -1.46875l0.578125 0zm6.74971 -3.5625l0 3.921875l2.78125 0l0 0.90625l-2.78125 0l0 7.734375q0 1.15625 0.328125 1.5625q0.328125 0.40625 0.859375 0.40625q0.421875 0 0.828125 -0.265625q0.40625 -0.265625 0.625 -0.796875l0.5 0q-0.453125 1.28125 -1.28125 1.921875q-0.828125 0.640625 -1.71875 0.640625q-0.59375 0 -1.171875 -0.328125q-0.578125 -0.328125 -0.859375 -0.9375q-0.265625 -0.625 -0.265625 -1.921875l0 -8.015625l-1.875 0l0 -0.421875q0.703125 -0.296875 1.453125 -0.96875q0.75 -0.6875 1.34375 -1.625q0.296875 -0.5 0.828125 -1.8125l0.40625 0zm3.2653503 3.921875l5.5625 0l0 0.484375l-0.28125 0q-0.578125 0 -0.875 0.25q-0.296875 0.25 -0.296875 0.625q0 0.515625 0.4375 1.40625l2.890625 6.015625l2.671875 -6.578125q0.21875 -0.53125 0.21875 -1.0625q0 -0.234375 -0.078125 -0.34375q-0.109375 -0.140625 -0.328125 -0.21875q-0.21875 -0.09375 -0.78125 -0.09375l0 -0.484375l3.875 0l0 0.484375q-0.484375 0.046875 -0.75 0.203125q-0.25 0.15625 -0.5625 0.59375q-0.125 0.171875 -0.4375 1.0l-4.859375 11.890625q-0.703125 1.734375 -1.84375 2.609375q-1.140625 0.890625 -2.1875 0.890625q-0.78125 0 -1.28125 -0.4375q-0.484375 -0.4375 -0.484375 -1.015625q0 -0.546875 0.359375 -0.890625q0.359375 -0.328125 0.984375 -0.328125q0.421875 0 1.171875 0.296875q0.515625 0.1875 0.65625 0.1875q0.390625 0 0.84375 -0.40625q0.46875 -0.390625 0.9375 -1.5625l0.84375 -2.0625l-4.28125 -9.0q-0.203125 -0.390625 -0.625 -1.0q-0.328125 -0.453125 -0.53125 -0.609375q-0.3125 -0.203125 -0.96875 -0.359375l0 -0.484375zm27.429688 10.203125q-1.84375 1.421875 -2.3125 1.640625q-0.703125 0.328125 -1.5 0.328125q-1.234375 0 -2.03125 -0.84375q-0.796875 -0.84375 -0.796875 -2.234375q0 -0.875 0.390625 -1.5q0.53125 -0.890625 1.84375 -1.671875q1.328125 -0.78125 4.40625 -1.90625l0 -0.46875q0 -1.78125 -0.578125 -2.4375q-0.5625 -0.671875 -1.640625 -0.671875q-0.8125 0 -1.296875 0.453125q-0.5 0.4375 -0.5 1.015625l0.03125 0.75q0 0.59375 -0.3125 0.921875q-0.296875 0.328125 -0.796875 0.328125q-0.484375 0 -0.796875 -0.328125q-0.296875 -0.34375 -0.296875 -0.9375q0 -1.125 1.140625 -2.0625q1.15625 -0.9375 3.21875 -0.9375q1.59375 0 2.609375 0.546875q0.765625 0.390625 1.125 1.25q0.234375 0.5625 0.234375 2.296875l0 4.046875q0 1.703125 0.0625 2.09375q0.0625 0.375 0.21875 0.515625q0.15625 0.125 0.34375 0.125q0.203125 0 0.359375 -0.09375q0.28125 -0.171875 1.0625 -0.953125l0 0.734375q-1.453125 1.953125 -2.78125 1.953125q-0.640625 0 -1.03125 -0.4375q-0.375 -0.453125 -0.375 -1.515625zm0 -0.84375l0 -4.546875q-1.96875 0.78125 -2.546875 1.109375q-1.03125 0.578125 -1.46875 1.203125q-0.4375 0.625 -0.4375 1.359375q0 0.9375 0.546875 1.5625q0.5625 0.609375 1.296875 0.609375q0.984375 0 2.609375 -1.296875zm8.550049 -7.1875q2.09375 -2.53125 3.984375 -2.53125q0.984375 0 1.6875 0.5q0.703125 0.484375 1.125 1.609375q0.28125 0.78125 0.28125 2.390625l0 5.09375q0 1.125 0.1875 1.53125q0.140625 0.328125 0.453125 0.515625q0.328125 0.171875 1.1875 0.171875l0 0.46875l-5.90625 0l0 -0.46875l0.25 0q0.828125 0 1.15625 -0.25q0.34375 -0.25 0.46875 -0.75q0.046875 -0.203125 0.046875 -1.21875l0 -4.890625q0 -1.625 -0.421875 -2.359375q-0.421875 -0.734375 -1.421875 -0.734375q-1.546875 0 -3.078125 1.6875l0 6.296875q0 1.203125 0.140625 1.484375q0.1875 0.390625 0.5 0.5625q0.3125 0.171875 1.296875 0.171875l0 0.46875l-5.90625 0l0 -0.46875l0.265625 0q0.90625 0 1.21875 -0.453125q0.328125 -0.46875 0.328125 -1.765625l0 -4.4375q0 -2.140625 -0.09375 -2.609375q-0.09375 -0.46875 -0.296875 -0.640625q-0.203125 -0.171875 -0.546875 -0.171875q-0.359375 0 -0.875 0.203125l-0.1875 -0.46875l3.59375 -1.46875l0.5625 0l0 2.53125zm18.265625 8.40625q-0.875 0.921875 -1.703125 1.3125q-0.828125 0.390625 -1.796875 0.390625q-1.953125 0 -3.40625 -1.625q-1.453125 -1.640625 -1.453125 -4.203125q0 -2.5625 1.609375 -4.6875q1.609375 -2.125 4.15625 -2.125q1.5625 0 2.59375 1.0l0 -2.203125q0 -2.046875 -0.09375 -2.515625q-0.09375 -0.46875 -0.3125 -0.625q-0.203125 -0.171875 -0.515625 -0.171875q-0.34375 0 -0.890625 0.203125l-0.171875 -0.453125l3.546875 -1.46875l0.59375 0l0 13.796875q0 2.09375 0.09375 2.5625q0.09375 0.453125 0.3125 0.640625q0.21875 0.171875 0.5 0.171875q0.359375 0 0.9375 -0.21875l0.140625 0.453125l-3.53125 1.46875l-0.609375 0l0 -1.703125zm0 -0.90625l0 -6.140625q-0.078125 -0.890625 -0.46875 -1.609375q-0.390625 -0.734375 -1.03125 -1.109375q-0.640625 -0.375 -1.25 -0.375q-1.15625 0 -2.046875 1.03125q-1.1875 1.359375 -1.1875 3.953125q0 2.640625 1.140625 4.046875q1.15625 1.390625 2.5625 1.390625q1.171875 0 2.28125 -1.1875z" fill-rule="nonzero"/><path fill="#000000" d="m210.24895 196.40524l0 5.140625q0 1.671875 0.359375 2.078125q0.5 0.5625 1.5 0.5625l0.671875 0l0 0.484375l-7.5625 0l0 -0.484375l0.671875 0q1.109375 0 1.59375 -0.71875q0.265625 -0.40625 0.265625 -1.921875l0 -11.40625q0 -1.65625 -0.359375 -2.0625q-0.5 -0.578125 -1.5 -0.578125l-0.671875 0l0 -0.484375l6.46875 0q2.375 0 3.734375 0.5q1.375 0.484375 2.3125 1.640625q0.9375 1.15625 0.9375 2.75q0 2.15625 -1.4375 3.515625q-1.421875 1.34375 -4.015625 1.34375q-0.640625 0 -1.390625 -0.078125q-0.734375 -0.09375 -1.578125 -0.28125zm0 -0.734375q0.6875 0.125 1.21875 0.1875q0.53125 0.0625 0.90625 0.0625q1.359375 0 2.34375 -1.046875q0.984375 -1.046875 0.984375 -2.71875q0 -1.140625 -0.46875 -2.125q-0.46875 -0.984375 -1.328125 -1.46875q-0.859375 -0.484375 -1.953125 -0.484375q-0.65625 0 -1.703125 0.25l0 7.34375zm13.684311 -3.28125l0 2.6875q1.484375 -2.6875 3.0625 -2.6875q0.71875 0 1.1875 0.4375q0.46875 0.4375 0.46875 1.015625q0 0.5 -0.34375 0.859375q-0.328125 0.34375 -0.796875 0.34375q-0.46875 0 -1.03125 -0.4375q-0.5625 -0.453125 -0.828125 -0.453125q-0.234375 0 -0.515625 0.265625q-0.578125 0.53125 -1.203125 1.75l0 5.71875q0 0.984375 0.234375 1.5q0.171875 0.34375 0.59375 0.578125q0.4375 0.234375 1.25 0.234375l0 0.46875l-6.109375 0l0 -0.46875q0.90625 0 1.359375 -0.28125q0.328125 -0.21875 0.453125 -0.671875q0.0625 -0.21875 0.0625 -1.265625l0 -4.609375q0 -2.09375 -0.09375 -2.484375q-0.078125 -0.390625 -0.3125 -0.578125q-0.21875 -0.1875 -0.5625 -0.1875q-0.390625 0 -0.90625 0.203125l-0.125 -0.46875l3.609375 -1.46875l0.546875 0zm8.4079895 -6.234375q0.546875 0 0.9375 0.390625q0.390625 0.390625 0.390625 0.9375q0 0.546875 -0.390625 0.9375q-0.390625 0.390625 -0.9375 0.390625q-0.546875 0 -0.9375 -0.390625q-0.390625 -0.390625 -0.390625 -0.9375q0 -0.546875 0.390625 -0.9375q0.390625 -0.390625 0.9375 -0.390625zm1.09375 6.234375l0 9.59375q0 1.109375 0.15625 1.484375q0.15625 0.375 0.46875 0.5625q0.328125 0.171875 1.171875 0.171875l0 0.46875l-5.78125 0l0 -0.46875q0.859375 0 1.15625 -0.171875q0.3125 -0.171875 0.484375 -0.5625q0.171875 -0.390625 0.171875 -1.484375l0 -4.59375q0 -1.953125 -0.109375 -2.515625q-0.09375 -0.421875 -0.296875 -0.578125q-0.1875 -0.171875 -0.53125 -0.171875q-0.359375 0 -0.875 0.203125l-0.1875 -0.46875l3.59375 -1.46875l0.578125 0zm2.671585 0.359375l5.609375 0l0 0.484375l-0.359375 0q-0.515625 0 -0.78125 0.25q-0.265625 0.234375 -0.265625 0.65625q0 0.453125 0.28125 1.078125l2.765625 6.59375l2.78125 -6.84375q0.3125 -0.71875 0.3125 -1.09375q0 -0.1875 -0.109375 -0.3125q-0.140625 -0.1875 -0.375 -0.25q-0.21875 -0.078125 -0.890625 -0.078125l0 -0.484375l3.890625 0l0 0.484375q-0.671875 0.046875 -0.9375 0.265625q-0.453125 0.390625 -0.8125 1.3125l-4.234375 10.21875l-0.53125 0l-4.265625 -10.0625q-0.28125 -0.703125 -0.546875 -1.0q-0.25 -0.3125 -0.65625 -0.515625q-0.21875 -0.125 -0.875 -0.21875l0 -0.484375zm20.70314 10.203125q-1.8437653 1.421875 -2.3125153 1.640625q-0.703125 0.328125 -1.5 0.328125q-1.234375 0 -2.03125 -0.84375q-0.796875 -0.84375 -0.796875 -2.234375q0 -0.875 0.390625 -1.5q0.53125 -0.890625 1.84375 -1.671875q1.328125 -0.78125 4.4062653 -1.90625l0 -0.46875q0 -1.78125 -0.578125 -2.4375q-0.56251526 -0.671875 -1.6406403 -0.671875q-0.8125 0 -1.296875 0.453125q-0.5 0.4375 -0.5 1.015625l0.03125 0.75q0 0.59375 -0.3125 0.921875q-0.296875 0.328125 -0.796875 0.328125q-0.484375 0 -0.796875 -0.328125q-0.296875 -0.34375 -0.296875 -0.9375q0 -1.125 1.140625 -2.0625q1.15625 -0.9375 3.21875 -0.9375q1.5937653 0 2.6093903 0.546875q0.765625 0.390625 1.125 1.25q0.234375 0.5625 0.234375 2.296875l0 4.046875q0 1.703125 0.0625 2.09375q0.0625 0.375 0.21875 0.515625q0.15625 0.125 0.34375 0.125q0.203125 0 0.359375 -0.09375q0.28125 -0.171875 1.0625 -0.953125l0 0.734375q-1.453125 1.953125 -2.78125 1.953125q-0.640625 0 -1.03125 -0.4375q-0.375 -0.453125 -0.375 -1.515625zm0 -0.84375l0 -4.546875q-1.9687653 0.78125 -2.5468903 1.109375q-1.03125 0.578125 -1.46875 1.203125q-0.4375 0.625 -0.4375 1.359375q0 0.9375 0.546875 1.5625q0.5625 0.609375 1.296875 0.609375q0.984375 0 2.6093903 -1.296875zm15.190674 -1.96875q-0.46875 2.359375 -1.875 3.625q-1.40625 1.265625 -3.109375 1.265625q-2.03125 0 -3.546875 -1.703125q-1.515625 -1.703125 -1.515625 -4.609375q0 -2.8125 1.671875 -4.5625q1.671875 -1.765625 4.015625 -1.765625q1.765625 0 2.890625 0.9375q1.140625 0.9375 1.140625 1.9375q0 0.484375 -0.328125 0.796875q-0.3125 0.3125 -0.890625 0.3125q-0.765625 0 -1.15625 -0.5q-0.21875 -0.28125 -0.296875 -1.046875q-0.0625 -0.765625 -0.515625 -1.171875q-0.46875 -0.390625 -1.265625 -0.390625q-1.296875 0 -2.09375 0.96875q-1.0625 1.28125 -1.0625 3.375q0 2.125 1.046875 3.765625q1.046875 1.625 2.828125 1.625q1.28125 0 2.296875 -0.859375q0.71875 -0.609375 1.390625 -2.1875l0.375 0.1875zm1.0344543 -7.390625l5.5625 0l0 0.484375l-0.28125 0q-0.578125 0 -0.875 0.25q-0.296875 0.25 -0.296875 0.625q0 0.515625 0.4375 1.40625l2.890625 6.015625l2.671875 -6.578125q0.21875 -0.53125 0.21875 -1.0625q0 -0.234375 -0.078125 -0.34375q-0.109375 -0.140625 -0.328125 -0.21875q-0.21875 -0.09375 -0.78125 -0.09375l0 -0.484375l3.875 0l0 0.484375q-0.484375 0.046875 -0.75 0.203125q-0.25 0.15625 -0.5625 0.59375q-0.125 0.171875 -0.4375 1.0l-4.859375 11.890625q-0.703125 1.734375 -1.84375 2.609375q-1.140625 0.890625 -2.1875 0.890625q-0.78125 0 -1.28125 -0.4375q-0.484375 -0.4375 -0.484375 -1.015625q0 -0.546875 0.359375 -0.890625q0.359375 -0.328125 0.984375 -0.328125q0.421875 0 1.171875 0.296875q0.515625 0.1875 0.65625 0.1875q0.390625 0 0.84375 -0.40625q0.46875 -0.390625 0.9375 -1.5625l0.84375 -2.0625l-4.28125 -9.0q-0.203125 -0.390625 -0.625 -1.0q-0.328125 -0.453125 -0.53125 -0.609375q-0.3125 -0.203125 -0.96875 -0.359375l0 -0.484375z" fill-rule="nonzero"/><path fill="#000000" fill-opacity="0.0" d="m624.7579 172.0l-45.51184 26.48819" fill-rule="evenodd"/><path stroke="#085630" stroke-width="2.0" stroke-linejoin="round" stroke-linecap="butt" d="m618.20667 175.81285l-38.960632 22.675339" fill-rule="evenodd"/><path fill="#085630" stroke="#085630" stroke-width="2.0" stroke-linecap="butt" d="m623.8936 172.50302c0.9139404 1.570404 0.38183594 3.5843964 -1.1885986 4.4983826c-1.5703735 0.9139862 -3.5843506 0.38186646 -4.498352 -1.1885529c-0.91400146 -1.570404 -0.38189697 -3.5843964 1.1885376 -4.4983826c1.5704346 -0.9139862 3.5844116 -0.38186646 4.498413 1.1885529z" fill-rule="nonzero"/><path fill="#000000" fill-opacity="0.0" d="m583.7533 99.96588l339.9685 0l0 70.29921l-339.9685 0z" fill-rule="evenodd"/><path fill="#000000" d="m642.23956 150.644l4.296875 -2.09375l0.421875 0l0 14.90625q0 1.484375 0.125 1.859375q0.125 0.359375 0.515625 0.5625q0.390625 0.1875 1.59375 0.203125l0 0.484375l-6.640625 0l0 -0.484375q1.25 -0.015625 1.609375 -0.203125q0.375 -0.203125 0.515625 -0.515625q0.140625 -0.3125 0.140625 -1.90625l0 -9.53125q0 -1.921875 -0.125 -2.46875q-0.09375 -0.421875 -0.34375 -0.609375q-0.234375 -0.203125 -0.578125 -0.203125q-0.484375 0 -1.34375 0.40625l-0.1875 -0.40625zm13.53125 13.390625q0.609375 0 1.03125 0.4375q0.421875 0.421875 0.421875 1.015625q0 0.59375 -0.421875 1.015625q-0.421875 0.421875 -1.03125 0.421875q-0.59375 0 -1.015625 -0.421875q-0.421875 -0.421875 -0.421875 -1.015625q0 -0.609375 0.421875 -1.03125q0.421875 -0.421875 1.015625 -0.421875z" fill-rule="nonzero"/><path fill="#000000" d="m698.5286 148.90962l0.203125 4.140625l-0.5 0q-0.140625 -1.09375 -0.390625 -1.5625q-0.40625 -0.75 -1.078125 -1.109375q-0.671875 -0.359375 -1.765625 -0.359375l-2.484375 0l0 13.484375q0 1.625 0.359375 2.03125q0.484375 0.546875 1.515625 0.546875l0.609375 0l0 0.484375l-7.484375 0l0 -0.484375l0.625 0q1.125 0 1.59375 -0.671875q0.28125 -0.421875 0.28125 -1.90625l0 -13.484375l-2.109375 0q-1.25 0 -1.765625 0.1875q-0.671875 0.25 -1.15625 0.953125q-0.484375 0.703125 -0.578125 1.890625l-0.484375 0l0.203125 -4.140625l14.40625 0zm4.251404 5.375l0 2.6875q1.484375 -2.6875 3.0625 -2.6875q0.71875 0 1.1875 0.4375q0.46875 0.4375 0.46875 1.015625q0 0.5 -0.34375 0.859375q-0.328125 0.34375 -0.796875 0.34375q-0.46875 0 -1.03125 -0.4375q-0.5625 -0.453125 -0.828125 -0.453125q-0.234375 0 -0.515625 0.265625q-0.578125 0.53125 -1.203125 1.75l0 5.71875q0 0.984375 0.234375 1.5q0.171875 0.34375 0.59375 0.578125q0.4375 0.234375 1.25 0.234375l0 0.46875l-6.109375 0l0 -0.46875q0.90625 0 1.359375 -0.28125q0.328125 -0.21875 0.453125 -0.671875q0.0625 -0.21875 0.0625 -1.265625l0 -4.609375q0 -2.09375 -0.09375 -2.484375q-0.078125 -0.390625 -0.3125 -0.578125q-0.21875 -0.1875 -0.5625 -0.1875q-0.390625 0 -0.90625 0.203125l-0.125 -0.46875l3.609375 -1.46875l0.546875 0zm12.142395 10.5625q-1.84375 1.421875 -2.3125 1.640625q-0.703125 0.328125 -1.5 0.328125q-1.234375 0 -2.03125 -0.84375q-0.796875 -0.84375 -0.796875 -2.234375q0 -0.875 0.390625 -1.5q0.53125 -0.890625 1.84375 -1.671875q1.328125 -0.78125 4.40625 -1.90625l0 -0.46875q0 -1.78125 -0.578125 -2.4375q-0.5625 -0.671875 -1.640625 -0.671875q-0.8125 0 -1.296875 0.453125q-0.5 0.4375 -0.5 1.015625l0.03125 0.75q0 0.59375 -0.3125 0.921875q-0.296875 0.328125 -0.796875 0.328125q-0.484375 0 -0.796875 -0.328125q-0.296875 -0.34375 -0.296875 -0.9375q0 -1.125 1.140625 -2.0625q1.15625 -0.9375 3.21875 -0.9375q1.59375 0 2.609375 0.546875q0.765625 0.390625 1.125 1.25q0.234375 0.5625 0.234375 2.296875l0 4.046875q0 1.703125 0.0625 2.09375q0.0625 0.375 0.21875 0.515625q0.15625 0.125 0.34375 0.125q0.203125 0 0.359375 -0.09375q0.28125 -0.171875 1.0625 -0.953125l0 0.734375q-1.453125 1.953125 -2.78125 1.953125q-0.640625 0 -1.03125 -0.4375q-0.375 -0.453125 -0.375 -1.515625zm0 -0.84375l0 -4.546875q-1.96875 0.78125 -2.546875 1.109375q-1.03125 0.578125 -1.46875 1.203125q-0.4375 0.625 -0.4375 1.359375q0 0.9375 0.546875 1.5625q0.5625 0.609375 1.296875 0.609375q0.984375 0 2.609375 -1.296875zm8.550049 -7.1875q2.09375 -2.53125 3.984375 -2.53125q0.984375 0 1.6875 0.5q0.703125 0.484375 1.125 1.609375q0.28125 0.78125 0.28125 2.390625l0 5.09375q0 1.125 0.1875 1.53125q0.140625 0.328125 0.453125 0.515625q0.328125 0.171875 1.1875 0.171875l0 0.46875l-5.90625 0l0 -0.46875l0.25 0q0.828125 0 1.15625 -0.25q0.34375 -0.25 0.46875 -0.75q0.046875 -0.203125 0.046875 -1.21875l0 -4.890625q0 -1.625 -0.421875 -2.359375q-0.421875 -0.734375 -1.421875 -0.734375q-1.546875 0 -3.078125 1.6875l0 6.296875q0 1.203125 0.140625 1.484375q0.1875 0.390625 0.5 0.5625q0.3125 0.171875 1.296875 0.171875l0 0.46875l-5.90625 0l0 -0.46875l0.265625 0q0.90625 0 1.21875 -0.453125q0.328125 -0.46875 0.328125 -1.765625l0 -4.4375q0 -2.140625 -0.09375 -2.609375q-0.09375 -0.46875 -0.296875 -0.640625q-0.203125 -0.171875 -0.546875 -0.171875q-0.359375 0 -0.875 0.203125l-0.1875 -0.46875l3.59375 -1.46875l0.5625 0l0 2.53125zm17.546875 -2.53125l0 4.0625l-0.421875 0q-0.5 -1.90625 -1.28125 -2.59375q-0.765625 -0.6875 -1.953125 -0.6875q-0.921875 0 -1.484375 0.484375q-0.546875 0.46875 -0.546875 1.0625q0 0.71875 0.40625 1.25q0.40625 0.53125 1.640625 1.125l1.90625 0.921875q2.640625 1.296875 2.640625 3.40625q0 1.625 -1.234375 2.625q-1.234375 0.984375 -2.75 0.984375q-1.09375 0 -2.5 -0.390625q-0.421875 -0.125 -0.703125 -0.125q-0.296875 0 -0.46875 0.34375l-0.421875 0l0 -4.265625l0.421875 0q0.359375 1.828125 1.390625 2.75q1.03125 0.921875 2.3125 0.921875q0.890625 0 1.453125 -0.515625q0.578125 -0.53125 0.578125 -1.28125q0 -0.890625 -0.640625 -1.5q-0.625 -0.625 -2.515625 -1.5625q-1.890625 -0.9375 -2.46875 -1.6875q-0.59375 -0.734375 -0.59375 -1.875q0 -1.46875 1.0 -2.453125q1.015625 -1.0 2.625 -1.0q0.703125 0 1.703125 0.3125q0.65625 0.1875 0.890625 0.1875q0.203125 0 0.3125 -0.09375q0.125 -0.09375 0.28125 -0.40625l0.421875 0zm1.8110352 1.546875l3.671875 -1.484375l0.5 0l0 2.78125q0.921875 -1.578125 1.84375 -2.203125q0.9375 -0.640625 1.96875 -0.640625q1.796875 0 3.0 1.40625q1.46875 1.71875 1.46875 4.484375q0 3.078125 -1.78125 5.109375q-1.453125 1.640625 -3.671875 1.640625q-0.953125 0 -1.65625 -0.265625q-0.515625 -0.203125 -1.171875 -0.78125l0 3.625q0 1.234375 0.140625 1.5625q0.15625 0.328125 0.53125 0.515625q0.375 0.203125 1.34375 0.203125l0 0.484375l-6.25 0l0 -0.484375l0.328125 0q0.71875 0.015625 1.21875 -0.265625q0.25 -0.15625 0.390625 -0.46875q0.140625 -0.3125 0.140625 -1.625l0 -11.265625q0 -1.15625 -0.109375 -1.46875q-0.109375 -0.3125 -0.34375 -0.46875q-0.21875 -0.15625 -0.609375 -0.15625q-0.3125 0 -0.796875 0.171875l-0.15625 -0.40625zm4.171875 2.0625l0 4.453125q0 1.453125 0.109375 1.90625q0.1875 0.75 0.890625 1.328125q0.71875 0.5625 1.796875 0.5625q1.296875 0 2.109375 -1.015625q1.046875 -1.328125 1.046875 -3.734375q0 -2.734375 -1.1875 -4.203125q-0.84375 -1.015625 -1.984375 -1.015625q-0.625 0 -1.234375 0.3125q-0.46875 0.234375 -1.546875 1.40625zm16.78125 6.953125q-1.84375 1.421875 -2.3125 1.640625q-0.703125 0.328125 -1.5 0.328125q-1.234375 0 -2.03125 -0.84375q-0.796875 -0.84375 -0.796875 -2.234375q0 -0.875 0.390625 -1.5q0.53125 -0.890625 1.84375 -1.671875q1.328125 -0.78125 4.40625 -1.90625l0 -0.46875q0 -1.78125 -0.578125 -2.4375q-0.5625 -0.671875 -1.640625 -0.671875q-0.8125 0 -1.296875 0.453125q-0.5 0.4375 -0.5 1.015625l0.03125 0.75q0 0.59375 -0.3125 0.921875q-0.296875 0.328125 -0.796875 0.328125q-0.484375 0 -0.796875 -0.328125q-0.296875 -0.34375 -0.296875 -0.9375q0 -1.125 1.140625 -2.0625q1.15625 -0.9375 3.21875 -0.9375q1.59375 0 2.609375 0.546875q0.765625 0.390625 1.125 1.25q0.234375 0.5625 0.234375 2.296875l0 4.046875q0 1.703125 0.0625 2.09375q0.0625 0.375 0.21875 0.515625q0.15625 0.125 0.34375 0.125q0.203125 0 0.359375 -0.09375q0.28125 -0.171875 1.0625 -0.953125l0 0.734375q-1.453125 1.953125 -2.78125 1.953125q-0.640625 0 -1.03125 -0.4375q-0.375 -0.453125 -0.375 -1.515625zm0 -0.84375l0 -4.546875q-1.96875 0.78125 -2.546875 1.109375q-1.03125 0.578125 -1.46875 1.203125q-0.4375 0.625 -0.4375 1.359375q0 0.9375 0.546875 1.5625q0.5625 0.609375 1.296875 0.609375q0.984375 0 2.609375 -1.296875zm8.565735 -9.71875l0 2.6875q1.484375 -2.6875 3.0625 -2.6875q0.71875 0 1.1875 0.4375q0.46875 0.4375 0.46875 1.015625q0 0.5 -0.34375 0.859375q-0.328125 0.34375 -0.796875 0.34375q-0.46875 0 -1.03125 -0.4375q-0.5625 -0.453125 -0.828125 -0.453125q-0.234375 0 -0.515625 0.265625q-0.578125 0.53125 -1.203125 1.75l0 5.71875q0 0.984375 0.234375 1.5q0.171875 0.34375 0.59375 0.578125q0.4375 0.234375 1.25 0.234375l0 0.46875l-6.109375 0l0 -0.46875q0.90625 0 1.359375 -0.28125q0.328125 -0.21875 0.453125 -0.671875q0.0625 -0.21875 0.0625 -1.265625l0 -4.609375q0 -2.09375 -0.09375 -2.484375q-0.078125 -0.390625 -0.3125 -0.578125q-0.21875 -0.1875 -0.5625 -0.1875q-0.390625 0 -0.90625 0.203125l-0.125 -0.46875l3.609375 -1.46875l0.546875 0zm7.392334 4.84375q-0.015625 2.65625 1.28125 4.171875q1.296875 1.515625 3.0625 1.515625q1.171875 0 2.03125 -0.640625q0.875 -0.65625 1.453125 -2.21875l0.40625 0.265625q-0.28125 1.78125 -1.59375 3.25q-1.3125 1.453125 -3.28125 1.453125q-2.15625 0 -3.6875 -1.671875q-1.53125 -1.671875 -1.53125 -4.5q0 -3.046875 1.5625 -4.75q1.578125 -1.71875 3.953125 -1.71875q2.0 0 3.28125 1.328125q1.296875 1.3125 1.296875 3.515625l-8.234375 0zm0 -0.75l5.515625 0q-0.0625 -1.140625 -0.28125 -1.609375q-0.328125 -0.734375 -0.96875 -1.140625q-0.640625 -0.421875 -1.34375 -0.421875q-1.078125 0 -1.9375 0.84375q-0.84375 0.828125 -0.984375 2.328125zm13.300049 -1.5625q2.09375 -2.53125 3.984375 -2.53125q0.984375 0 1.6875 0.5q0.703125 0.484375 1.125 1.609375q0.28125 0.78125 0.28125 2.390625l0 5.09375q0 1.125 0.1875 1.53125q0.140625 0.328125 0.453125 0.515625q0.328125 0.171875 1.1875 0.171875l0 0.46875l-5.90625 0l0 -0.46875l0.25 0q0.828125 0 1.15625 -0.25q0.34375 -0.25 0.46875 -0.75q0.046875 -0.203125 0.046875 -1.21875l0 -4.890625q0 -1.625 -0.421875 -2.359375q-0.421875 -0.734375 -1.421875 -0.734375q-1.546875 0 -3.078125 1.6875l0 6.296875q0 1.203125 0.140625 1.484375q0.1875 0.390625 0.5 0.5625q0.3125 0.171875 1.296875 0.171875l0 0.46875l-5.90625 0l0 -0.46875l0.265625 0q0.90625 0 1.21875 -0.453125q0.328125 -0.46875 0.328125 -1.765625l0 -4.4375q0 -2.140625 -0.09375 -2.609375q-0.09375 -0.46875 -0.296875 -0.640625q-0.203125 -0.171875 -0.546875 -0.171875q-0.359375 0 -0.875 0.203125l-0.1875 -0.46875l3.59375 -1.46875l0.5625 0l0 2.53125zm19.96875 5.21875q-0.46875 2.359375 -1.875 3.625q-1.40625 1.265625 -3.109375 1.265625q-2.03125 0 -3.546875 -1.703125q-1.515625 -1.703125 -1.515625 -4.609375q0 -2.8125 1.671875 -4.5625q1.671875 -1.765625 4.015625 -1.765625q1.765625 0 2.890625 0.9375q1.140625 0.9375 1.140625 1.9375q0 0.484375 -0.328125 0.796875q-0.3125 0.3125 -0.890625 0.3125q-0.765625 0 -1.15625 -0.5q-0.21875 -0.28125 -0.296875 -1.046875q-0.0625 -0.765625 -0.515625 -1.171875q-0.46875 -0.390625 -1.265625 -0.390625q-1.296875 0 -2.09375 0.96875q-1.0625 1.28125 -1.0625 3.375q0 2.125 1.046875 3.765625q1.046875 1.625 2.828125 1.625q1.28125 0 2.296875 -0.859375q0.71875 -0.609375 1.390625 -2.1875l0.375 0.1875zm1.0344849 -7.390625l5.5625 0l0 0.484375l-0.28125 0q-0.578125 0 -0.875 0.25q-0.296875 0.25 -0.296875 0.625q0 0.515625 0.4375 1.40625l2.890625 6.015625l2.671875 -6.578125q0.21875 -0.53125 0.21875 -1.0625q0 -0.234375 -0.078125 -0.34375q-0.109375 -0.140625 -0.328125 -0.21875q-0.21875 -0.09375 -0.78125 -0.09375l0 -0.484375l3.875 0l0 0.484375q-0.484375 0.046875 -0.75 0.203125q-0.25 0.15625 -0.5625 0.59375q-0.125 0.171875 -0.4375 1.0l-4.859375 11.890625q-0.703125 1.734375 -1.84375 2.609375q-1.140625 0.890625 -2.1875 0.890625q-0.78125 0 -1.28125 -0.4375q-0.484375 -0.4375 -0.484375 -1.015625q0 -0.546875 0.359375 -0.890625q0.359375 -0.328125 0.984375 -0.328125q0.421875 0 1.171875 0.296875q0.515625 0.1875 0.65625 0.1875q0.390625 0 0.84375 -0.40625q0.46875 -0.390625 0.9375 -1.5625l0.84375 -2.0625l-4.28125 -9.0q-0.203125 -0.390625 -0.625 -1.0q-0.328125 -0.453125 -0.53125 -0.609375q-0.3125 -0.203125 -0.96875 -0.359375l0 -0.484375zm27.429688 10.203125q-1.84375 1.421875 -2.3125 1.640625q-0.703125 0.328125 -1.5 0.328125q-1.234375 0 -2.03125 -0.84375q-0.796875 -0.84375 -0.796875 -2.234375q0 -0.875 0.390625 -1.5q0.53125 -0.890625 1.84375 -1.671875q1.328125 -0.78125 4.40625 -1.90625l0 -0.46875q0 -1.78125 -0.578125 -2.4375q-0.5625 -0.671875 -1.640625 -0.671875q-0.8125 0 -1.296875 0.453125q-0.5 0.4375 -0.5 1.015625l0.03125 0.75q0 0.59375 -0.3125 0.921875q-0.296875 0.328125 -0.796875 0.328125q-0.484375 0 -0.796875 -0.328125q-0.296875 -0.34375 -0.296875 -0.9375q0 -1.125 1.140625 -2.0625q1.15625 -0.9375 3.21875 -0.9375q1.59375 0 2.609375 0.546875q0.765625 0.390625 1.125 1.25q0.234375 0.5625 0.234375 2.296875l0 4.046875q0 1.703125 0.0625 2.09375q0.0625 0.375 0.21875 0.515625q0.15625 0.125 0.34375 0.125q0.203125 0 0.359375 -0.09375q0.28125 -0.171875 1.0625 -0.953125l0 0.734375q-1.453125 1.953125 -2.78125 1.953125q-0.640625 0 -1.03125 -0.4375q-0.375 -0.453125 -0.375 -1.515625zm0 -0.84375l0 -4.546875q-1.96875 0.78125 -2.546875 1.109375q-1.03125 0.578125 -1.46875 1.203125q-0.4375 0.625 -0.4375 1.359375q0 0.9375 0.546875 1.5625q0.5625 0.609375 1.296875 0.609375q0.984375 0 2.609375 -1.296875zm8.550049 -7.1875q2.09375 -2.53125 3.984375 -2.53125q0.984375 0 1.6875 0.5q0.703125 0.484375 1.125 1.609375q0.28125 0.78125 0.28125 2.390625l0 5.09375q0 1.125 0.1875 1.53125q0.140625 0.328125 0.453125 0.515625q0.328125 0.171875 1.1875 0.171875l0 0.46875l-5.90625 0l0 -0.46875l0.25 0q0.828125 0 1.15625 -0.25q0.34375 -0.25 0.46875 -0.75q0.046875 -0.203125 0.046875 -1.21875l0 -4.890625q0 -1.625 -0.421875 -2.359375q-0.421875 -0.734375 -1.421875 -0.734375q-1.546875 0 -3.078125 1.6875l0 6.296875q0 1.203125 0.140625 1.484375q0.1875 0.390625 0.5 0.5625q0.3125 0.171875 1.296875 0.171875l0 0.46875l-5.90625 0l0 -0.46875l0.265625 0q0.90625 0 1.21875 -0.453125q0.328125 -0.46875 0.328125 -1.765625l0 -4.4375q0 -2.140625 -0.09375 -2.609375q-0.09375 -0.46875 -0.296875 -0.640625q-0.203125 -0.171875 -0.546875 -0.171875q-0.359375 0 -0.875 0.203125l-0.1875 -0.46875l3.59375 -1.46875l0.5625 0l0 2.53125zm18.265625 8.40625q-0.875 0.921875 -1.703125 1.3125q-0.828125 0.390625 -1.796875 0.390625q-1.953125 0 -3.40625 -1.625q-1.453125 -1.640625 -1.453125 -4.203125q0 -2.5625 1.609375 -4.6875q1.609375 -2.125 4.15625 -2.125q1.5625 0 2.59375 1.0l0 -2.203125q0 -2.046875 -0.09375 -2.515625q-0.09375 -0.46875 -0.3125 -0.625q-0.203125 -0.171875 -0.515625 -0.171875q-0.34375 0 -0.890625 0.203125l-0.171875 -0.453125l3.546875 -1.46875l0.59375 0l0 13.796875q0 2.09375 0.09375 2.5625q0.09375 0.453125 0.3125 0.640625q0.21875 0.171875 0.5 0.171875q0.359375 0 0.9375 -0.21875l0.140625 0.453125l-3.53125 1.46875l-0.609375 0l0 -1.703125zm0 -0.90625l0 -6.140625q-0.078125 -0.890625 -0.46875 -1.609375q-0.390625 -0.734375 -1.03125 -1.109375q-0.640625 -0.375 -1.25 -0.375q-1.15625 0 -2.046875 1.03125q-1.1875 1.359375 -1.1875 3.953125q0 2.640625 1.140625 4.046875q1.15625 1.390625 2.5625 1.390625q1.171875 0 2.28125 -1.1875z" fill-rule="nonzero"/><path fill="#000000" d="m710.73334 192.65962l-6.84375 0l-1.1875 2.78125q-0.453125 1.03125 -0.453125 1.53125q0 0.40625 0.375 0.71875q0.390625 0.296875 1.671875 0.390625l0 0.484375l-5.5625 0l0 -0.484375q1.109375 -0.1875 1.4375 -0.5q0.65625 -0.625 1.46875 -2.546875l6.203125 -14.515625l0.46875 0l6.140625 14.671875q0.734375 1.78125 1.34375 2.3125q0.609375 0.515625 1.6875 0.578125l0 0.484375l-6.96875 0l0 -0.484375q1.0625 -0.046875 1.421875 -0.34375q0.375 -0.296875 0.375 -0.734375q0 -0.578125 -0.515625 -1.8125l-1.0625 -2.53125zm-0.375 -0.96875l-2.984375 -7.125l-3.078125 7.125l6.0625 0zm18.375305 2.34375q-0.46875 2.359375 -1.875 3.625q-1.40625 1.265625 -3.109375 1.265625q-2.03125 0 -3.546875 -1.703125q-1.515625 -1.703125 -1.515625 -4.609375q0 -2.8125 1.671875 -4.5625q1.671875 -1.765625 4.015625 -1.765625q1.765625 0 2.890625 0.9375q1.140625 0.9375 1.140625 1.9375q0 0.484375 -0.328125 0.796875q-0.3125 0.3125 -0.890625 0.3125q-0.765625 0 -1.15625 -0.5q-0.21875 -0.28125 -0.296875 -1.046875q-0.0625 -0.765625 -0.515625 -1.171875q-0.46875 -0.390625 -1.265625 -0.390625q-1.296875 0 -2.09375 0.96875q-1.0625 1.28125 -1.0625 3.375q0 2.125 1.046875 3.765625q1.046875 1.625 2.828125 1.625q1.28125 0 2.296875 -0.859375q0.71875 -0.609375 1.390625 -2.1875l0.375 0.1875zm11.831299 0q-0.46875 2.359375 -1.875 3.625q-1.40625 1.265625 -3.109375 1.265625q-2.03125 0 -3.546875 -1.703125q-1.515625 -1.703125 -1.515625 -4.609375q0 -2.8125 1.671875 -4.5625q1.671875 -1.765625 4.015625 -1.765625q1.765625 0 2.890625 0.9375q1.140625 0.9375 1.140625 1.9375q0 0.484375 -0.328125 0.796875q-0.3125 0.3125 -0.890625 0.3125q-0.765625 0 -1.15625 -0.5q-0.21875 -0.28125 -0.296875 -1.046875q-0.0625 -0.765625 -0.515625 -1.171875q-0.46875 -0.390625 -1.265625 -0.390625q-1.296875 0 -2.09375 0.96875q-1.0625 1.28125 -1.0625 3.375q0 2.125 1.046875 3.765625q1.046875 1.625 2.828125 1.625q1.28125 0 2.296875 -0.859375q0.71875 -0.609375 1.390625 -2.1875l0.375 0.1875zm7.550049 -7.75q2.703125 0 4.34375 2.0625q1.390625 1.765625 1.390625 4.03125q0 1.609375 -0.765625 3.25q-0.765625 1.640625 -2.125 2.46875q-1.34375 0.828125 -3.0 0.828125q-2.6875 0 -4.28125 -2.140625q-1.34375 -1.8125 -1.34375 -4.0625q0 -1.640625 0.8125 -3.25q0.828125 -1.625 2.15625 -2.40625q1.328125 -0.78125 2.8125 -0.78125zm-0.40625 0.859375q-0.6875 0 -1.390625 0.40625q-0.703125 0.40625 -1.140625 1.4375q-0.421875 1.03125 -0.421875 2.640625q0 2.609375 1.03125 4.5q1.046875 1.875 2.734375 1.875q1.265625 0 2.078125 -1.03125q0.828125 -1.046875 0.828125 -3.59375q0 -3.171875 -1.375 -4.984375q-0.921875 -1.25 -2.34375 -1.25zm18.34375 -0.5l0 7.21875q0 2.078125 0.09375 2.546875q0.109375 0.453125 0.3125 0.640625q0.21875 0.171875 0.515625 0.171875q0.390625 0 0.90625 -0.21875l0.1875 0.453125l-3.578125 1.46875l-0.578125 0l0 -2.515625q-1.546875 1.65625 -2.359375 2.09375q-0.796875 0.421875 -1.6875 0.421875q-1.0 0 -1.75 -0.578125q-0.734375 -0.578125 -1.015625 -1.484375q-0.28125 -0.90625 -0.28125 -2.578125l0 -5.328125q0 -0.84375 -0.1875 -1.171875q-0.1875 -0.328125 -0.546875 -0.5q-0.34375 -0.171875 -1.28125 -0.15625l0 -0.484375l4.171875 0l0 7.984375q0 1.65625 0.578125 2.1875q0.578125 0.515625 1.40625 0.515625q0.546875 0 1.25 -0.34375q0.71875 -0.359375 1.703125 -1.34375l0 -6.765625q0 -1.015625 -0.375 -1.375q-0.375 -0.359375 -1.546875 -0.375l0 -0.484375l4.0625 0zm6.359375 2.171875q2.09375 -2.53125 3.984375 -2.53125q0.984375 0 1.6875 0.5q0.703125 0.484375 1.125 1.609375q0.28125 0.78125 0.28125 2.390625l0 5.09375q0 1.125 0.1875 1.53125q0.140625 0.328125 0.453125 0.515625q0.328125 0.171875 1.1875 0.171875l0 0.46875l-5.90625 0l0 -0.46875l0.25 0q0.828125 0 1.15625 -0.25q0.34375 -0.25 0.46875 -0.75q0.046875 -0.203125 0.046875 -1.21875l0 -4.890625q0 -1.625 -0.421875 -2.359375q-0.421875 -0.734375 -1.421875 -0.734375q-1.546875 0 -3.078125 1.6875l0 6.296875q0 1.203125 0.140625 1.484375q0.1875 0.390625 0.5 0.5625q0.3125 0.171875 1.296875 0.171875l0 0.46875l-5.90625 0l0 -0.46875l0.265625 0q0.90625 0 1.21875 -0.453125q0.328125 -0.46875 0.328125 -1.765625l0 -4.4375q0 -2.140625 -0.09375 -2.609375q-0.09375 -0.46875 -0.296875 -0.640625q-0.203125 -0.171875 -0.546875 -0.171875q-0.359375 0 -0.875 0.203125l-0.1875 -0.46875l3.59375 -1.46875l0.5625 0l0 2.53125zm13.3125 -6.09375l0 3.921875l2.78125 0l0 0.90625l-2.78125 0l0 7.734375q0 1.15625 0.328125 1.5625q0.328125 0.40625 0.859375 0.40625q0.421875 0 0.828125 -0.265625q0.40625 -0.265625 0.625 -0.796875l0.5 0q-0.453125 1.28125 -1.28125 1.921875q-0.828125 0.640625 -1.71875 0.640625q-0.59375 0 -1.171875 -0.328125q-0.578125 -0.328125 -0.859375 -0.9375q-0.265625 -0.625 -0.265625 -1.921875l0 -8.015625l-1.875 0l0 -0.421875q0.703125 -0.296875 1.453125 -0.96875q0.75 -0.6875 1.34375 -1.625q0.296875 -0.5 0.828125 -1.8125l0.40625 0zm10.70282 14.125q-1.84375 1.421875 -2.3125 1.640625q-0.703125 0.328125 -1.5 0.328125q-1.234375 0 -2.03125 -0.84375q-0.796875 -0.84375 -0.796875 -2.234375q0 -0.875 0.390625 -1.5q0.53125 -0.890625 1.84375 -1.671875q1.328125 -0.78125 4.40625 -1.90625l0 -0.46875q0 -1.78125 -0.578125 -2.4375q-0.5625 -0.671875 -1.640625 -0.671875q-0.8125 0 -1.296875 0.453125q-0.5 0.4375 -0.5 1.015625l0.03125 0.75q0 0.59375 -0.3125 0.921875q-0.296875 0.328125 -0.796875 0.328125q-0.484375 0 -0.796875 -0.328125q-0.296875 -0.34375 -0.296875 -0.9375q0 -1.125 1.140625 -2.0625q1.15625 -0.9375 3.21875 -0.9375q1.59375 0 2.609375 0.546875q0.765625 0.390625 1.125 1.25q0.234375 0.5625 0.234375 2.296875l0 4.046875q0 1.703125 0.0625 2.09375q0.0625 0.375 0.21875 0.515625q0.15625 0.125 0.34375 0.125q0.203125 0 0.359375 -0.09375q0.28125 -0.171875 1.0625 -0.953125l0 0.734375q-1.453125 1.953125 -2.78125 1.953125q-0.640625 0 -1.03125 -0.4375q-0.375 -0.453125 -0.375 -1.515625zm0 -0.84375l0 -4.546875q-1.96875 0.78125 -2.546875 1.109375q-1.03125 0.578125 -1.46875 1.203125q-0.4375 0.625 -0.4375 1.359375q0 0.9375 0.546875 1.5625q0.5625 0.609375 1.296875 0.609375q0.984375 0 2.609375 -1.296875zm8.33136 -7.296875q1.734375 -2.421875 3.734375 -2.421875q1.84375 0 3.203125 1.578125q1.375 1.5625 1.375 4.28125q0 3.1875 -2.109375 5.125q-1.8125 1.65625 -4.03125 1.65625q-1.046875 0 -2.125 -0.375q-1.0625 -0.375 -2.1875 -1.125l0 -12.359375q0 -2.03125 -0.109375 -2.5q-0.09375 -0.46875 -0.296875 -0.625q-0.203125 -0.171875 -0.515625 -0.171875q-0.375 0 -0.921875 0.203125l-0.171875 -0.453125l3.578125 -1.46875l0.578125 0l0 8.65625zm0 0.828125l0 7.125q0.671875 0.65625 1.375 1.0q0.71875 0.328125 1.453125 0.328125q1.1875 0 2.203125 -1.296875q1.03125 -1.3125 1.03125 -3.796875q0 -2.296875 -1.03125 -3.515625q-1.015625 -1.234375 -2.3125 -1.234375q-0.6875 0 -1.390625 0.34375q-0.515625 0.265625 -1.328125 1.046875zm13.09375 -9.484375q0.546875 0 0.9375 0.390625q0.390625 0.390625 0.390625 0.9375q0 0.546875 -0.390625 0.9375q-0.390625 0.390625 -0.9375 0.390625q-0.546875 0 -0.9375 -0.390625q-0.390625 -0.390625 -0.390625 -0.9375q0 -0.546875 0.390625 -0.9375q0.390625 -0.390625 0.9375 -0.390625zm1.09375 6.234375l0 9.59375q0 1.109375 0.15625 1.484375q0.15625 0.375 0.46875 0.5625q0.328125 0.171875 1.171875 0.171875l0 0.46875l-5.78125 0l0 -0.46875q0.859375 0 1.15625 -0.171875q0.3125 -0.171875 0.484375 -0.5625q0.171875 -0.390625 0.171875 -1.484375l0 -4.59375q0 -1.953125 -0.109375 -2.515625q-0.09375 -0.421875 -0.296875 -0.578125q-0.1875 -0.171875 -0.53125 -0.171875q-0.359375 0 -0.875 0.203125l-0.1875 -0.46875l3.59375 -1.46875l0.578125 0zm7.39032 -6.234375l0 15.828125q0 1.109375 0.15625 1.484375q0.171875 0.359375 0.5 0.546875q0.34375 0.1875 1.265625 0.1875l0 0.46875l-5.84375 0l0 -0.46875q0.8125 0 1.109375 -0.171875q0.3125 -0.171875 0.46875 -0.5625q0.171875 -0.390625 0.171875 -1.484375l0 -10.828125q0 -2.03125 -0.09375 -2.484375q-0.078125 -0.46875 -0.28125 -0.625q-0.203125 -0.171875 -0.515625 -0.171875q-0.34375 0 -0.859375 0.203125l-0.21875 -0.453125l3.546875 -1.46875l0.59375 0zm6.32782 0q0.546875 0 0.9375 0.390625q0.390625 0.390625 0.390625 0.9375q0 0.546875 -0.390625 0.9375q-0.390625 0.390625 -0.9375 0.390625q-0.546875 0 -0.9375 -0.390625q-0.390625 -0.390625 -0.390625 -0.9375q0 -0.546875 0.390625 -0.9375q0.390625 -0.390625 0.9375 -0.390625zm1.09375 6.234375l0 9.59375q0 1.109375 0.15625 1.484375q0.15625 0.375 0.46875 0.5625q0.328125 0.171875 1.171875 0.171875l0 0.46875l-5.78125 0l0 -0.46875q0.859375 0 1.15625 -0.171875q0.3125 -0.171875 0.484375 -0.5625q0.171875 -0.390625 0.171875 -1.484375l0 -4.59375q0 -1.953125 -0.109375 -2.515625q-0.09375 -0.421875 -0.296875 -0.578125q-0.1875 -0.171875 -0.53125 -0.171875q-0.359375 0 -0.875 0.203125l-0.1875 -0.46875l3.59375 -1.46875l0.578125 0zm6.749695 -3.5625l0 3.921875l2.78125 0l0 0.90625l-2.78125 0l0 7.734375q0 1.15625 0.328125 1.5625q0.328125 0.40625 0.859375 0.40625q0.421875 0 0.828125 -0.265625q0.40625 -0.265625 0.625 -0.796875l0.5 0q-0.453125 1.28125 -1.28125 1.921875q-0.828125 0.640625 -1.71875 0.640625q-0.59375 0 -1.171875 -0.328125q-0.578125 -0.328125 -0.859375 -0.9375q-0.265625 -0.625 -0.265625 -1.921875l0 -8.015625l-1.875 0l0 -0.421875q0.703125 -0.296875 1.453125 -0.96875q0.75 -0.6875 1.34375 -1.625q0.296875 -0.5 0.828125 -1.8125l0.40625 0zm3.2653809 3.921875l5.5625 0l0 0.484375l-0.28125 0q-0.578125 0 -0.875 0.25q-0.296875 0.25 -0.296875 0.625q0 0.515625 0.4375 1.40625l2.890625 6.015625l2.671875 -6.578125q0.21875 -0.53125 0.21875 -1.0625q0 -0.234375 -0.078125 -0.34375q-0.109375 -0.140625 -0.328125 -0.21875q-0.21875 -0.09375 -0.78125 -0.09375l0 -0.484375l3.875 0l0 0.484375q-0.484375 0.046875 -0.75 0.203125q-0.25 0.15625 -0.5625 0.59375q-0.125 0.171875 -0.4375 1.0l-4.859375 11.890625q-0.703125 1.734375 -1.84375 2.609375q-1.140625 0.890625 -2.1875 0.890625q-0.78125 0 -1.28125 -0.4375q-0.484375 -0.4375 -0.484375 -1.015625q0 -0.546875 0.359375 -0.890625q0.359375 -0.328125 0.984375 -0.328125q0.421875 0 1.171875 0.296875q0.515625 0.1875 0.65625 0.1875q0.390625 0 0.84375 -0.40625q0.46875 -0.390625 0.9375 -1.5625l0.84375 -2.0625l-4.28125 -9.0q-0.203125 -0.390625 -0.625 -1.0q-0.328125 -0.453125 -0.53125 -0.609375q-0.3125 -0.203125 -0.96875 -0.359375l0 -0.484375z" fill-rule="nonzero"/><path fill="#000000" fill-opacity="0.0" d="m478.34634 419.4898l0.03149414 -48.346436" fill-rule="evenodd"/><path stroke="#0e9453" stroke-width="2.0" stroke-linejoin="round" stroke-linecap="butt" d="m478.35126 411.90982l0.02658081 -40.76645" fill-rule="evenodd"/><path fill="#0e9453" stroke="#0e9453" stroke-width="2.0" stroke-linecap="butt" d="m478.347 418.48984c-1.8170166 -0.0011901855 -3.289032 -1.4751282 -3.2878418 -3.2921448c0.001159668 -1.8170166 1.4750977 -3.289032 3.2921143 -3.2878723c1.8170166 0.0011901855 3.2890625 1.4751282 3.2878723 3.2921448c-0.0011901855 1.8170166 -1.4751282 3.2890625 -3.2921448 3.2878723z" fill-rule="nonzero"/><path fill="#000000" fill-opacity="0.0" d="m334.2257 420.9265l332.25195 0l0 70.299194l-332.25195 0z" fill-rule="evenodd"/><path fill="#000000" d="m357.21008 455.52652l-12.40625 0l0 -1.734375l6.5625 -7.28125q1.453125 -1.65625 2.0 -2.6875q0.5625 -1.046875 0.5625 -2.140625q0 -1.484375 -0.90625 -2.4375q-0.890625 -0.953125 -2.390625 -0.953125q-1.796875 0 -2.796875 1.03125q-0.984375 1.015625 -0.984375 2.84375l-2.421875 0q0 -2.625 1.6875 -4.234375q1.6875 -1.625 4.515625 -1.625q2.640625 0 4.171875 1.390625q1.546875 1.390625 1.546875 3.6875q0 2.796875 -3.578125 6.671875l-5.0625 5.5l9.5 0l0 1.96875zm2.8587341 -1.265625q0 -0.625 0.359375 -1.03125q0.375 -0.421875 1.109375 -0.421875q0.75 0 1.140625 0.421875q0.390625 0.40625 0.390625 1.03125q0 0.609375 -0.390625 1.015625q-0.390625 0.390625 -1.140625 0.390625q-0.734375 0 -1.109375 -0.390625q-0.359375 -0.40625 -0.359375 -1.015625z" fill-rule="nonzero"/><path fill="#000000" d="m377.3864 438.83902l0 6.984375l3.875 0q1.5 0 2.015625 -0.46875q0.671875 -0.59375 0.75 -2.109375l0.484375 0l0 6.15625l-0.484375 0q-0.171875 -1.296875 -0.359375 -1.65625q-0.234375 -0.453125 -0.765625 -0.71875q-0.53125 -0.265625 -1.640625 -0.265625l-3.875 0l0 5.828125q0 1.171875 0.09375 1.421875q0.109375 0.25 0.359375 0.40625q0.265625 0.140625 1.0 0.140625l2.984375 0q1.5 0 2.171875 -0.203125q0.6875 -0.203125 1.3125 -0.8125q0.796875 -0.8125 1.65625 -2.4375l0.515625 0l-1.53125 4.421875l-13.59375 0l0 -0.484375l0.625 0q0.625 0 1.1875 -0.296875q0.40625 -0.203125 0.5625 -0.625q0.15625 -0.421875 0.15625 -1.703125l0 -11.46875q0 -1.671875 -0.34375 -2.0625q-0.46875 -0.53125 -1.5625 -0.53125l-0.625 0l0 -0.484375l13.59375 0l0.203125 3.875l-0.515625 0q-0.265625 -1.390625 -0.59375 -1.90625q-0.328125 -0.53125 -0.984375 -0.796875q-0.515625 -0.203125 -1.84375 -0.203125l-4.828125 0zm19.95459 15.34375q-0.875 0.921875 -1.703125 1.3125q-0.828125 0.390625 -1.796875 0.390625q-1.953125 0 -3.40625 -1.625q-1.453125 -1.640625 -1.453125 -4.203125q0 -2.5625 1.609375 -4.6875q1.609375 -2.125 4.15625 -2.125q1.5625 0 2.59375 1.0l0 -2.203125q0 -2.046875 -0.09375 -2.515625q-0.09375 -0.46875 -0.3125 -0.625q-0.203125 -0.171875 -0.515625 -0.171875q-0.34375 0 -0.890625 0.203125l-0.171875 -0.453125l3.546875 -1.46875l0.59375 0l0 13.796875q0 2.09375 0.09375 2.5625q0.09375 0.453125 0.3125 0.640625q0.21875 0.171875 0.5 0.171875q0.359375 0 0.9375 -0.21875l0.140625 0.453125l-3.53125 1.46875l-0.609375 0l0 -1.703125zm0 -0.90625l0 -6.140625q-0.078125 -0.890625 -0.46875 -1.609375q-0.390625 -0.734375 -1.03125 -1.109375q-0.640625 -0.375 -1.25 -0.375q-1.15625 0 -2.046875 1.03125q-1.1875 1.359375 -1.1875 3.953125q0 2.640625 1.140625 4.046875q1.15625 1.390625 2.5625 1.390625q1.171875 0 2.28125 -1.1875zm15.359375 -9.671875l0 7.21875q0 2.078125 0.09375 2.546875q0.109375 0.453125 0.3125 0.640625q0.21875 0.171875 0.515625 0.171875q0.390625 0 0.90625 -0.21875l0.1875 0.453125l-3.578125 1.46875l-0.578125 0l0 -2.515625q-1.546875 1.65625 -2.359375 2.09375q-0.796875 0.421875 -1.6875 0.421875q-1.0 0 -1.75 -0.578125q-0.734375 -0.578125 -1.015625 -1.484375q-0.28125 -0.90625 -0.28125 -2.578125l0 -5.328125q0 -0.84375 -0.1875 -1.171875q-0.1875 -0.328125 -0.546875 -0.5q-0.34375 -0.171875 -1.28125 -0.15625l0 -0.484375l4.171875 0l0 7.984375q0 1.65625 0.578125 2.1875q0.578125 0.515625 1.40625 0.515625q0.546875 0 1.25 -0.34375q0.71875 -0.359375 1.703125 -1.34375l0 -6.765625q0 -1.015625 -0.375 -1.375q-0.375 -0.359375 -1.546875 -0.375l0 -0.484375l4.0625 0zm13.0 7.390625q-0.46875 2.359375 -1.875 3.625q-1.40625 1.265625 -3.109375 1.265625q-2.03125 0 -3.546875 -1.703125q-1.515625 -1.703125 -1.515625 -4.609375q0 -2.8125 1.671875 -4.5625q1.671875 -1.765625 4.015625 -1.765625q1.765625 0 2.890625 0.9375q1.140625 0.9375 1.140625 1.9375q0 0.484375 -0.328125 0.796875q-0.3125 0.3125 -0.890625 0.3125q-0.765625 0 -1.15625 -0.5q-0.21875 -0.28125 -0.296875 -1.046875q-0.0625 -0.765625 -0.515625 -1.171875q-0.46875 -0.390625 -1.265625 -0.390625q-1.296875 0 -2.09375 0.96875q-1.0625 1.28125 -1.0625 3.375q0 2.125 1.046875 3.765625q1.046875 1.625 2.828125 1.625q1.28125 0 2.296875 -0.859375q0.71875 -0.609375 1.390625 -2.1875l0.375 0.1875zm8.471924 2.8125q-1.84375 1.421875 -2.3125 1.640625q-0.703125 0.328125 -1.5 0.328125q-1.234375 0 -2.03125 -0.84375q-0.796875 -0.84375 -0.796875 -2.234375q0 -0.875 0.390625 -1.5q0.53125 -0.890625 1.84375 -1.671875q1.328125 -0.78125 4.40625 -1.90625l0 -0.46875q0 -1.78125 -0.578125 -2.4375q-0.5625 -0.671875 -1.640625 -0.671875q-0.8125 0 -1.296875 0.453125q-0.5 0.4375 -0.5 1.015625l0.03125 0.75q0 0.59375 -0.3125 0.921875q-0.296875 0.328125 -0.796875 0.328125q-0.484375 0 -0.796875 -0.328125q-0.296875 -0.34375 -0.296875 -0.9375q0 -1.125 1.140625 -2.0625q1.15625 -0.9375 3.21875 -0.9375q1.59375 0 2.609375 0.546875q0.765625 0.390625 1.125 1.25q0.234375 0.5625 0.234375 2.296875l0 4.046875q0 1.703125 0.0625 2.09375q0.0625 0.375 0.21875 0.515625q0.15625 0.125 0.34375 0.125q0.203125 0 0.359375 -0.09375q0.28125 -0.171875 1.0625 -0.953125l0 0.734375q-1.453125 1.953125 -2.78125 1.953125q-0.640625 0 -1.03125 -0.4375q-0.375 -0.453125 -0.375 -1.515625zm0 -0.84375l0 -4.546875q-1.96875 0.78125 -2.546875 1.109375q-1.03125 0.578125 -1.46875 1.203125q-0.4375 0.625 -0.4375 1.359375q0 0.9375 0.546875 1.5625q0.5625 0.609375 1.296875 0.609375q0.984375 0 2.609375 -1.296875zm8.534454 -13.28125l0 3.921875l2.78125 0l0 0.90625l-2.78125 0l0 7.734375q0 1.15625 0.328125 1.5625q0.328125 0.40625 0.859375 0.40625q0.421875 0 0.828125 -0.265625q0.40625 -0.265625 0.625 -0.796875l0.5 0q-0.453125 1.28125 -1.28125 1.921875q-0.828125 0.640625 -1.71875 0.640625q-0.59375 0 -1.171875 -0.328125q-0.578125 -0.328125 -0.859375 -0.9375q-0.265625 -0.625 -0.265625 -1.921875l0 -8.015625l-1.875 0l0 -0.421875q0.703125 -0.296875 1.453125 -0.96875q0.75 -0.6875 1.34375 -1.625q0.296875 -0.5 0.828125 -1.8125l0.40625 0zm6.968445 -2.671875q0.546875 0 0.9375 0.390625q0.390625 0.390625 0.390625 0.9375q0 0.546875 -0.390625 0.9375q-0.390625 0.390625 -0.9375 0.390625q-0.546875 0 -0.9375 -0.390625q-0.390625 -0.390625 -0.390625 -0.9375q0 -0.546875 0.390625 -0.9375q0.390625 -0.390625 0.9375 -0.390625zm1.09375 6.234375l0 9.59375q0 1.109375 0.15625 1.484375q0.15625 0.375 0.46875 0.5625q0.328125 0.171875 1.171875 0.171875l0 0.46875l-5.78125 0l0 -0.46875q0.859375 0 1.15625 -0.171875q0.3125 -0.171875 0.484375 -0.5625q0.171875 -0.390625 0.171875 -1.484375l0 -4.59375q0 -1.953125 -0.109375 -2.515625q-0.09375 -0.421875 -0.296875 -0.578125q-0.1875 -0.171875 -0.53125 -0.171875q-0.359375 0 -0.875 0.203125l-0.1875 -0.46875l3.59375 -1.46875l0.578125 0zm9.124725 0q2.703125 0 4.34375 2.0625q1.390625 1.765625 1.390625 4.03125q0 1.609375 -0.765625 3.25q-0.765625 1.640625 -2.125 2.46875q-1.34375 0.828125 -3.0 0.828125q-2.6875 0 -4.28125 -2.140625q-1.34375 -1.8125 -1.34375 -4.0625q0 -1.640625 0.8125 -3.25q0.828125 -1.625 2.15625 -2.40625q1.328125 -0.78125 2.8125 -0.78125zm-0.40625 0.859375q-0.6875 0 -1.390625 0.40625q-0.703125 0.40625 -1.140625 1.4375q-0.421875 1.03125 -0.421875 2.640625q0 2.609375 1.03125 4.5q1.046875 1.875 2.734375 1.875q1.265625 0 2.078125 -1.03125q0.828125 -1.046875 0.828125 -3.59375q0 -3.171875 -1.375 -4.984375q-0.921875 -1.25 -2.34375 -1.25zm11.375 1.671875q2.09375 -2.53125 3.984375 -2.53125q0.984375 0 1.6875 0.5q0.703125 0.484375 1.125 1.609375q0.28125 0.78125 0.28125 2.390625l0 5.09375q0 1.125 0.1875 1.53125q0.140625 0.328125 0.453125 0.515625q0.328125 0.171875 1.1875 0.171875l0 0.46875l-5.90625 0l0 -0.46875l0.25 0q0.828125 0 1.15625 -0.25q0.34375 -0.25 0.46875 -0.75q0.046875 -0.203125 0.046875 -1.21875l0 -4.890625q0 -1.625 -0.421875 -2.359375q-0.421875 -0.734375 -1.421875 -0.734375q-1.546875 0 -3.078125 1.6875l0 6.296875q0 1.203125 0.140625 1.484375q0.1875 0.390625 0.5 0.5625q0.3125 0.171875 1.296875 0.171875l0 0.46875l-5.90625 0l0 -0.46875l0.265625 0q0.90625 0 1.21875 -0.453125q0.328125 -0.46875 0.328125 -1.765625l0 -4.4375q0 -2.140625 -0.09375 -2.609375q-0.09375 -0.46875 -0.296875 -0.640625q-0.203125 -0.171875 -0.546875 -0.171875q-0.359375 0 -0.875 0.203125l-0.1875 -0.46875l3.59375 -1.46875l0.5625 0l0 2.53125zm23.273438 8.03125q-1.84375 1.421875 -2.3125 1.640625q-0.703125 0.328125 -1.5 0.328125q-1.234375 0 -2.03125 -0.84375q-0.796875 -0.84375 -0.796875 -2.234375q0 -0.875 0.390625 -1.5q0.53125 -0.890625 1.84375 -1.671875q1.328125 -0.78125 4.40625 -1.90625l0 -0.46875q0 -1.78125 -0.578125 -2.4375q-0.5625 -0.671875 -1.640625 -0.671875q-0.8125 0 -1.296875 0.453125q-0.5 0.4375 -0.5 1.015625l0.03125 0.75q0 0.59375 -0.3125 0.921875q-0.296875 0.328125 -0.796875 0.328125q-0.484375 0 -0.796875 -0.328125q-0.296875 -0.34375 -0.296875 -0.9375q0 -1.125 1.140625 -2.0625q1.15625 -0.9375 3.21875 -0.9375q1.59375 0 2.609375 0.546875q0.765625 0.390625 1.125 1.25q0.234375 0.5625 0.234375 2.296875l0 4.046875q0 1.703125 0.0625 2.09375q0.0625 0.375 0.21875 0.515625q0.15625 0.125 0.34375 0.125q0.203125 0 0.359375 -0.09375q0.28125 -0.171875 1.0625 -0.953125l0 0.734375q-1.453125 1.953125 -2.78125 1.953125q-0.640625 0 -1.03125 -0.4375q-0.375 -0.453125 -0.375 -1.515625zm0 -0.84375l0 -4.546875q-1.96875 0.78125 -2.546875 1.109375q-1.03125 0.578125 -1.46875 1.203125q-0.4375 0.625 -0.4375 1.359375q0 0.9375 0.546875 1.5625q0.5625 0.609375 1.296875 0.609375q0.984375 0 2.609375 -1.296875zm8.550049 -7.1875q2.09375 -2.53125 3.984375 -2.53125q0.984375 0 1.6875 0.5q0.703125 0.484375 1.125 1.609375q0.28125 0.78125 0.28125 2.390625l0 5.09375q0 1.125 0.1875 1.53125q0.140625 0.328125 0.453125 0.515625q0.328125 0.171875 1.1875 0.171875l0 0.46875l-5.90625 0l0 -0.46875l0.25 0q0.828125 0 1.15625 -0.25q0.34375 -0.25 0.46875 -0.75q0.046875 -0.203125 0.046875 -1.21875l0 -4.890625q0 -1.625 -0.421875 -2.359375q-0.421875 -0.734375 -1.421875 -0.734375q-1.546875 0 -3.078125 1.6875l0 6.296875q0 1.203125 0.140625 1.484375q0.1875 0.390625 0.5 0.5625q0.3125 0.171875 1.296875 0.171875l0 0.46875l-5.90625 0l0 -0.46875l0.265625 0q0.90625 0 1.21875 -0.453125q0.328125 -0.46875 0.328125 -1.765625l0 -4.4375q0 -2.140625 -0.09375 -2.609375q-0.09375 -0.46875 -0.296875 -0.640625q-0.203125 -0.171875 -0.546875 -0.171875q-0.359375 0 -0.875 0.203125l-0.1875 -0.46875l3.59375 -1.46875l0.5625 0l0 2.53125zm18.265625 8.40625q-0.875 0.921875 -1.703125 1.3125q-0.828125 0.390625 -1.796875 0.390625q-1.953125 0 -3.40625 -1.625q-1.453125 -1.640625 -1.453125 -4.203125q0 -2.5625 1.609375 -4.6875q1.609375 -2.125 4.15625 -2.125q1.5625 0 2.59375 1.0l0 -2.203125q0 -2.046875 -0.09375 -2.515625q-0.09375 -0.46875 -0.3125 -0.625q-0.203125 -0.171875 -0.515625 -0.171875q-0.34375 0 -0.890625 0.203125l-0.171875 -0.453125l3.546875 -1.46875l0.59375 0l0 13.796875q0 2.09375 0.09375 2.5625q0.09375 0.453125 0.3125 0.640625q0.21875 0.171875 0.5 0.171875q0.359375 0 0.9375 -0.21875l0.140625 0.453125l-3.53125 1.46875l-0.609375 0l0 -1.703125zm0 -0.90625l0 -6.140625q-0.078125 -0.890625 -0.46875 -1.609375q-0.390625 -0.734375 -1.03125 -1.109375q-0.640625 -0.375 -1.25 -0.375q-1.15625 0 -2.046875 1.03125q-1.1875 1.359375 -1.1875 3.953125q0 2.640625 1.140625 4.046875q1.15625 1.390625 2.5625 1.390625q1.171875 0 2.28125 -1.1875zm25.682312 -15.40625l0.203125 4.140625l-0.5 0q-0.140625 -1.09375 -0.390625 -1.5625q-0.40625 -0.75 -1.078125 -1.109375q-0.671875 -0.359375 -1.765625 -0.359375l-2.484375 0l0 13.484375q0 1.625 0.359375 2.03125q0.484375 0.546875 1.515625 0.546875l0.609375 0l0 0.484375l-7.484375 0l0 -0.484375l0.625 0q1.125 0 1.59375 -0.671875q0.28125 -0.421875 0.28125 -1.90625l0 -13.484375l-2.109375 0q-1.25 0 -1.765625 0.1875q-0.671875 0.25 -1.15625 0.953125q-0.484375 0.703125 -0.578125 1.890625l-0.484375 0l0.203125 -4.140625l14.40625 0zm4.251465 5.375l0 2.6875q1.484375 -2.6875 3.0625 -2.6875q0.71875 0 1.1875 0.4375q0.46875 0.4375 0.46875 1.015625q0 0.5 -0.34375 0.859375q-0.328125 0.34375 -0.796875 0.34375q-0.46875 0 -1.03125 -0.4375q-0.5625 -0.453125 -0.828125 -0.453125q-0.234375 0 -0.515625 0.265625q-0.578125 0.53125 -1.203125 1.75l0 5.71875q0 0.984375 0.234375 1.5q0.171875 0.34375 0.59375 0.578125q0.4375 0.234375 1.25 0.234375l0 0.46875l-6.109375 0l0 -0.46875q0.90625 0 1.359375 -0.28125q0.328125 -0.21875 0.453125 -0.671875q0.0625 -0.21875 0.0625 -1.265625l0 -4.609375q0 -2.09375 -0.09375 -2.484375q-0.078125 -0.390625 -0.3125 -0.578125q-0.21875 -0.1875 -0.5625 -0.1875q-0.390625 0 -0.90625 0.203125l-0.125 -0.46875l3.609375 -1.46875l0.546875 0zm12.142334 10.5625q-1.84375 1.421875 -2.3125 1.640625q-0.703125 0.328125 -1.5 0.328125q-1.234375 0 -2.03125 -0.84375q-0.796875 -0.84375 -0.796875 -2.234375q0 -0.875 0.390625 -1.5q0.53125 -0.890625 1.84375 -1.671875q1.328125 -0.78125 4.40625 -1.90625l0 -0.46875q0 -1.78125 -0.578125 -2.4375q-0.5625 -0.671875 -1.640625 -0.671875q-0.8125 0 -1.296875 0.453125q-0.5 0.4375 -0.5 1.015625l0.03125 0.75q0 0.59375 -0.3125 0.921875q-0.296875 0.328125 -0.796875 0.328125q-0.484375 0 -0.796875 -0.328125q-0.296875 -0.34375 -0.296875 -0.9375q0 -1.125 1.140625 -2.0625q1.15625 -0.9375 3.21875 -0.9375q1.59375 0 2.609375 0.546875q0.765625 0.390625 1.125 1.25q0.234375 0.5625 0.234375 2.296875l0 4.046875q0 1.703125 0.0625 2.09375q0.0625 0.375 0.21875 0.515625q0.15625 0.125 0.34375 0.125q0.203125 0 0.359375 -0.09375q0.28125 -0.171875 1.0625 -0.953125l0 0.734375q-1.453125 1.953125 -2.78125 1.953125q-0.640625 0 -1.03125 -0.4375q-0.375 -0.453125 -0.375 -1.515625zm0 -0.84375l0 -4.546875q-1.96875 0.78125 -2.546875 1.109375q-1.03125 0.578125 -1.46875 1.203125q-0.4375 0.625 -0.4375 1.359375q0 0.9375 0.546875 1.5625q0.5625 0.609375 1.296875 0.609375q0.984375 0 2.609375 -1.296875zm8.096924 -15.953125q0.546875 0 0.9375 0.390625q0.390625 0.390625 0.390625 0.9375q0 0.546875 -0.390625 0.9375q-0.390625 0.390625 -0.9375 0.390625q-0.546875 0 -0.9375 -0.390625q-0.390625 -0.390625 -0.390625 -0.9375q0 -0.546875 0.390625 -0.9375q0.390625 -0.390625 0.9375 -0.390625zm1.09375 6.234375l0 9.59375q0 1.109375 0.15625 1.484375q0.15625 0.375 0.46875 0.5625q0.328125 0.171875 1.171875 0.171875l0 0.46875l-5.78125 0l0 -0.46875q0.859375 0 1.15625 -0.171875q0.3125 -0.171875 0.484375 -0.5625q0.171875 -0.390625 0.171875 -1.484375l0 -4.59375q0 -1.953125 -0.109375 -2.515625q-0.09375 -0.421875 -0.296875 -0.578125q-0.1875 -0.171875 -0.53125 -0.171875q-0.359375 0 -0.875 0.203125l-0.1875 -0.46875l3.59375 -1.46875l0.578125 0zm6.765381 2.53125q2.09375 -2.53125 3.984375 -2.53125q0.984375 0 1.6875 0.5q0.703125 0.484375 1.125 1.609375q0.28125 0.78125 0.28125 2.390625l0 5.09375q0 1.125 0.1875 1.53125q0.140625 0.328125 0.453125 0.515625q0.328125 0.171875 1.1875 0.171875l0 0.46875l-5.90625 0l0 -0.46875l0.25 0q0.828125 0 1.15625 -0.25q0.34375 -0.25 0.46875 -0.75q0.046875 -0.203125 0.046875 -1.21875l0 -4.890625q0 -1.625 -0.421875 -2.359375q-0.421875 -0.734375 -1.421875 -0.734375q-1.546875 0 -3.078125 1.6875l0 6.296875q0 1.203125 0.140625 1.484375q0.1875 0.390625 0.5 0.5625q0.3125 0.171875 1.296875 0.171875l0 0.46875l-5.90625 0l0 -0.46875l0.265625 0q0.90625 0 1.21875 -0.453125q0.328125 -0.46875 0.328125 -1.765625l0 -4.4375q0 -2.140625 -0.09375 -2.609375q-0.09375 -0.46875 -0.296875 -0.640625q-0.203125 -0.171875 -0.546875 -0.171875q-0.359375 0 -0.875 0.203125l-0.1875 -0.46875l3.59375 -1.46875l0.5625 0l0 2.53125zm12.875 -8.765625q0.546875 0 0.9375 0.390625q0.390625 0.390625 0.390625 0.9375q0 0.546875 -0.390625 0.9375q-0.390625 0.390625 -0.9375 0.390625q-0.546875 0 -0.9375 -0.390625q-0.390625 -0.390625 -0.390625 -0.9375q0 -0.546875 0.390625 -0.9375q0.390625 -0.390625 0.9375 -0.390625zm1.09375 6.234375l0 9.59375q0 1.109375 0.15625 1.484375q0.15625 0.375 0.46875 0.5625q0.328125 0.171875 1.171875 0.171875l0 0.46875l-5.78125 0l0 -0.46875q0.859375 0 1.15625 -0.171875q0.3125 -0.171875 0.484375 -0.5625q0.171875 -0.390625 0.171875 -1.484375l0 -4.59375q0 -1.953125 -0.109375 -2.515625q-0.09375 -0.421875 -0.296875 -0.578125q-0.1875 -0.171875 -0.53125 -0.171875q-0.359375 0 -0.875 0.203125l-0.1875 -0.46875l3.59375 -1.46875l0.578125 0zm6.76532 2.53125q2.09375 -2.53125 3.984375 -2.53125q0.984375 0 1.6875 0.5q0.703125 0.484375 1.125 1.609375q0.28125 0.78125 0.28125 2.390625l0 5.09375q0 1.125 0.1875 1.53125q0.140625 0.328125 0.453125 0.515625q0.328125 0.171875 1.1875 0.171875l0 0.46875l-5.90625 0l0 -0.46875l0.25 0q0.828125 0 1.15625 -0.25q0.34375 -0.25 0.46875 -0.75q0.046875 -0.203125 0.046875 -1.21875l0 -4.890625q0 -1.625 -0.421875 -2.359375q-0.421875 -0.734375 -1.421875 -0.734375q-1.546875 0 -3.078125 1.6875l0 6.296875q0 1.203125 0.140625 1.484375q0.1875 0.390625 0.5 0.5625q0.3125 0.171875 1.296875 0.171875l0 0.46875l-5.90625 0l0 -0.46875l0.265625 0q0.90625 0 1.21875 -0.453125q0.328125 -0.46875 0.328125 -1.765625l0 -4.4375q0 -2.140625 -0.09375 -2.609375q-0.09375 -0.46875 -0.296875 -0.640625q-0.203125 -0.171875 -0.546875 -0.171875q-0.359375 0 -0.875 0.203125l-0.1875 -0.46875l3.59375 -1.46875l0.5625 0l0 2.53125zm13.03125 5.40625q-1.09375 -0.53125 -1.6875 -1.484375q-0.578125 -0.96875 -0.578125 -2.125q0 -1.765625 1.328125 -3.046875q1.34375 -1.28125 3.4375 -1.28125q1.703125 0 2.953125 0.84375l2.515625 0q0.5625 0 0.65625 0.03125q0.09375 0.03125 0.125 0.109375q0.078125 0.109375 0.078125 0.421875q0 0.328125 -0.0625 0.46875q-0.03125 0.0625 -0.140625 0.109375q-0.09375 0.03125 -0.65625 0.03125l-1.546875 0q0.734375 0.9375 0.734375 2.390625q0 1.671875 -1.28125 2.859375q-1.28125 1.171875 -3.421875 1.171875q-0.890625 0 -1.8125 -0.25q-0.5625 0.484375 -0.765625 0.859375q-0.203125 0.375 -0.203125 0.625q0 0.234375 0.203125 0.4375q0.21875 0.203125 0.84375 0.296875q0.375 0.046875 1.828125 0.09375q2.671875 0.0625 3.46875 0.1875q1.21875 0.15625 1.9375 0.890625q0.71875 0.734375 0.71875 1.796875q0 1.46875 -1.375 2.765625q-2.03125 1.890625 -5.296875 1.890625q-2.515625 0 -4.25 -1.125q-0.96875 -0.65625 -0.96875 -1.359375q0 -0.3125 0.140625 -0.625q0.21875 -0.484375 0.90625 -1.34375q0.09375 -0.109375 1.328125 -1.40625q-0.671875 -0.390625 -0.953125 -0.703125q-0.28125 -0.328125 -0.28125 -0.734375q0 -0.453125 0.375 -1.0625q0.375 -0.625 1.703125 -1.734375zm2.265625 -7.3125q-0.953125 0 -1.609375 0.78125q-0.65625 0.765625 -0.65625 2.34375q0 2.0625 0.890625 3.1875q0.671875 0.859375 1.71875 0.859375q0.984375 0 1.625 -0.734375q0.640625 -0.75 0.640625 -2.328125q0 -2.078125 -0.90625 -3.25q-0.65625 -0.859375 -1.703125 -0.859375zm-2.390625 11.65625q-0.609375 0.65625 -0.921875 1.234375q-0.3125 0.578125 -0.3125 1.0625q0 0.625 0.75 1.09375q1.3125 0.796875 3.765625 0.796875q2.34375 0 3.453125 -0.828125q1.109375 -0.828125 1.109375 -1.765625q0 -0.671875 -0.65625 -0.953125q-0.671875 -0.296875 -2.6875 -0.34375q-2.921875 -0.078125 -4.5 -0.296875z" fill-rule="nonzero"/><path fill="#000000" fill-opacity="0.0" d="m403.7568 215.90132l151.55905 0l0 84.44093l-151.55905 0z" fill-rule="evenodd"/><path fill="#ff9900" d="m451.5327 225.93304l0.1875 7.640625l-0.703125 0q-0.484375 -2.875 -2.40625 -4.625q-1.921875 -1.75 -4.15625 -1.75q-1.71875 0 -2.734375 0.921875q-1.0 0.921875 -1.0 2.125q0 0.765625 0.359375 1.359375q0.484375 0.796875 1.5625 1.5625q0.796875 0.5625 3.671875 1.984375q4.03125 1.984375 5.4375 3.734375q1.390625 1.765625 1.390625 4.03125q0 2.875 -2.25 4.953125q-2.234375 2.078125 -5.6875 2.078125q-1.09375 0 -2.0625 -0.234375q-0.953125 -0.21875 -2.40625 -0.8125q-0.8125 -0.34375 -1.34375 -0.34375q-0.4375 0 -0.9375 0.34375q-0.484375 0.328125 -0.78125 1.03125l-0.625 0l0 -8.671875l0.625 0q0.75 3.65625 2.859375 5.578125q2.125 1.921875 4.578125 1.921875q1.90625 0 3.03125 -1.03125q1.125 -1.03125 1.125 -2.40625q0 -0.8125 -0.4375 -1.5625q-0.4375 -0.765625 -1.3125 -1.453125q-0.875 -0.6875 -3.109375 -1.796875q-3.125 -1.53125 -4.5 -2.609375q-1.375 -1.09375 -2.109375 -2.421875q-0.734375 -1.34375 -0.734375 -2.953125q0 -2.734375 2.015625 -4.65625q2.015625 -1.9375 5.078125 -1.9375q1.109375 0 2.15625 0.265625q0.796875 0.203125 1.9375 0.765625q1.140625 0.546875 1.609375 0.546875q0.4375 0 0.6875 -0.265625q0.25 -0.28125 0.46875 -1.3125l0.515625 0zm11.617889 7.171875q2.0625 0 3.84375 1.078125q1.78125 1.0625 2.703125 3.03125q0.921875 1.953125 0.921875 4.28125q0 3.375 -1.703125 5.640625q-2.078125 2.734375 -5.703125 2.734375q-3.578125 0 -5.515625 -2.5q-1.921875 -2.5 -1.921875 -5.796875q0 -3.40625 1.96875 -5.9375q1.96875 -2.53125 5.40625 -2.53125zm0.078125 1.203125q-0.875 0 -1.5 0.65625q-0.609375 0.640625 -0.8125 2.5625q-0.1875 1.921875 -0.1875 5.34375q0 1.8125 0.25 3.390625q0.1875 1.1875 0.796875 1.828125q0.609375 0.625 1.375 0.625q0.765625 0 1.28125 -0.421875q0.65625 -0.578125 0.875 -1.609375q0.34375 -1.609375 0.34375 -6.5q0 -2.875 -0.328125 -3.953125q-0.328125 -1.078125 -0.953125 -1.5625q-0.4375 -0.359375 -1.140625 -0.359375zm22.703125 11.015625l0.53125 0.40625q-1.125 2.09375 -2.796875 3.125q-1.65625 1.015625 -3.53125 1.015625q-3.171875 0 -5.078125 -2.375q-1.890625 -2.390625 -1.890625 -5.75q0 -3.21875 1.734375 -5.671875q2.078125 -2.96875 5.734375 -2.96875q2.453125 0 3.890625 1.234375q1.453125 1.234375 1.453125 2.765625q0 0.953125 -0.578125 1.53125q-0.578125 0.578125 -1.53125 0.578125q-1.0 0 -1.65625 -0.65625q-0.640625 -0.65625 -0.796875 -2.359375q-0.109375 -1.0625 -0.5 -1.484375q-0.375 -0.421875 -0.90625 -0.421875q-0.8125 0 -1.390625 0.859375q-0.875 1.296875 -0.875 4.0q0 2.234375 0.703125 4.28125q0.71875 2.03125 1.953125 3.03125q0.921875 0.71875 2.203125 0.71875q0.828125 0 1.5625 -0.390625q0.75 -0.390625 1.765625 -1.46875zm6.2727356 -19.40625q1.109375 0 1.859375 0.765625q0.765625 0.765625 0.765625 1.859375q0 1.078125 -0.765625 1.84375q-0.765625 0.75 -1.859375 0.75q-1.078125 0 -1.84375 -0.75q-0.75 -0.765625 -0.75 -1.84375q0 -1.09375 0.75 -1.859375q0.765625 -0.765625 1.84375 -0.765625zm2.375 7.65625l0 12.546875q0 1.671875 0.390625 2.140625q0.390625 0.46875 1.515625 0.53125l0 0.609375l-8.546875 0l0 -0.609375q1.0625 -0.03125 1.5625 -0.609375q0.34375 -0.390625 0.34375 -2.0625l0 -9.234375q0 -1.6875 -0.390625 -2.140625q-0.390625 -0.46875 -1.515625 -0.546875l0 -0.625l6.640625 0zm12.191101 13.5q-2.90625 2.546875 -5.203125 2.546875q-1.359375 0 -2.25 -0.890625q-0.890625 -0.890625 -0.890625 -2.21875q0 -1.8125 1.546875 -3.25q1.5625 -1.453125 6.796875 -3.859375l0 -1.59375q0 -1.796875 -0.203125 -2.25q-0.1875 -0.46875 -0.734375 -0.8125q-0.546875 -0.359375 -1.21875 -0.359375q-1.09375 0 -1.8125 0.5q-0.4375 0.296875 -0.4375 0.703125q0 0.359375 0.46875 0.890625q0.640625 0.71875 0.640625 1.390625q0 0.84375 -0.625 1.421875q-0.609375 0.578125 -1.609375 0.578125q-1.0625 0 -1.78125 -0.640625q-0.71875 -0.640625 -0.71875 -1.5q0 -1.21875 0.96875 -2.328125q0.96875 -1.109375 2.6875 -1.703125q1.734375 -0.59375 3.59375 -0.59375q2.25 0 3.5625 0.953125q1.3125 0.953125 1.703125 2.078125q0.234375 0.703125 0.234375 3.265625l0 6.140625q0 1.078125 0.078125 1.359375q0.09375 0.28125 0.25 0.421875q0.171875 0.125 0.390625 0.125q0.4375 0 0.90625 -0.625l0.5 0.40625q-0.84375 1.265625 -1.75 1.828125q-0.90625 0.5625 -2.046875 0.5625q-1.359375 0 -2.125 -0.625q-0.765625 -0.640625 -0.921875 -1.921875zm0 -1.25l0 -5.28125q-2.046875 1.1875 -3.046875 2.5625q-0.671875 0.921875 -0.671875 1.84375q0 0.78125 0.5625 1.375q0.421875 0.453125 1.1875 0.453125q0.84375 0 1.96875 -0.953125zm14.78125 -19.375l0 19.671875q0 1.671875 0.390625 2.140625q0.390625 0.46875 1.515625 0.53125l0 0.609375l-8.53125 0l0 -0.609375q1.046875 -0.03125 1.546875 -0.609375q0.34375 -0.390625 0.34375 -2.0625l0 -16.375q0 -1.671875 -0.390625 -2.125q-0.390625 -0.46875 -1.5 -0.53125l0 -0.640625l6.625 0z" fill-rule="nonzero"/><path fill="#ff9900" d="m432.53995 290.7768l0 0.625l-12.0 0l0 -0.625l0.765625 0q1.0 0 1.609375 -0.359375q0.4375 -0.234375 0.671875 -0.8125q0.1875 -0.40625 0.1875 -2.125l0 -15.09375q0 -1.765625 -0.1875 -2.203125q-0.1875 -0.4375 -0.75 -0.765625q-0.5625 -0.328125 -1.53125 -0.328125l-0.765625 0l0 -0.640625l12.0 0l0 0.640625l-0.75 0q-1.0 0 -1.609375 0.34375q-0.453125 0.234375 -0.703125 0.8125q-0.1875 0.40625 -0.1875 2.140625l0 15.09375q0 1.75 0.1875 2.203125q0.203125 0.4375 0.765625 0.765625q0.578125 0.328125 1.546875 0.328125l0.75 0zm8.533691 -15.203125l0 2.09375q1.296875 -1.421875 2.40625 -1.984375q1.109375 -0.578125 2.4375 -0.578125q1.515625 0 2.546875 0.71875q1.03125 0.703125 1.59375 2.15625q1.359375 -1.515625 2.59375 -2.1875q1.25 -0.6875 2.59375 -0.6875q1.65625 0 2.625 0.75q0.96875 0.75 1.34375 1.921875q0.390625 1.15625 0.390625 3.6875l0 6.484375q0 1.828125 0.328125 2.265625q0.328125 0.4375 1.375 0.578125l0 0.609375l-8.171875 0l0 -0.609375q0.96875 -0.078125 1.421875 -0.75q0.3125 -0.453125 0.3125 -2.09375l0 -6.796875q0 -2.125 -0.171875 -2.6875q-0.171875 -0.578125 -0.546875 -0.859375q-0.359375 -0.28125 -0.84375 -0.28125q-0.734375 0 -1.484375 0.53125q-0.734375 0.53125 -1.5 1.59375l0 8.5q0 1.703125 0.296875 2.15625q0.390625 0.625 1.484375 0.6875l0 0.609375l-8.1875 0l0 -0.609375q0.65625 -0.03125 1.03125 -0.328125q0.390625 -0.296875 0.515625 -0.703125q0.125 -0.421875 0.125 -1.8125l0 -6.796875q0 -2.15625 -0.171875 -2.6875q-0.171875 -0.546875 -0.5625 -0.84375q-0.390625 -0.3125 -0.859375 -0.3125q-0.671875 0 -1.234375 0.359375q-0.796875 0.515625 -1.6875 1.78125l0 8.5q0 1.671875 0.328125 2.21875q0.328125 0.53125 1.375 0.625l0 0.609375l-8.15625 0l0 -0.609375q1.0 -0.09375 1.421875 -0.640625q0.296875 -0.375 0.296875 -2.203125l0 -8.9375q0 -1.796875 -0.34375 -2.234375q-0.328125 -0.4375 -1.375 -0.578125l0 -0.625l6.453125 0zm28.431427 14.21875l0 5.890625q0 1.21875 0.1875 1.65625q0.203125 0.4375 0.609375 0.640625q0.40625 0.203125 1.578125 0.203125l0 0.625l-9.015625 0l0 -0.625q1.046875 -0.03125 1.5625 -0.59375q0.34375 -0.390625 0.34375 -2.0l0 -16.703125q0 -1.6875 -0.390625 -2.140625q-0.390625 -0.46875 -1.515625 -0.546875l0 -0.625l6.640625 0l0 2.09375q0.828125 -1.21875 1.6875 -1.765625q1.234375 -0.796875 2.6875 -0.796875q1.75 0 3.171875 1.109375q1.4375 1.09375 2.171875 3.03125q0.75 1.9375 0.75 4.171875q0 2.40625 -0.765625 4.390625q-0.765625 1.984375 -2.234375 3.03125q-1.46875 1.03125 -3.265625 1.03125q-1.296875 0 -2.4375 -0.5625q-0.84375 -0.453125 -1.765625 -1.515625zm0 -1.703125q1.453125 2.0625 3.109375 2.0625q0.921875 0 1.5 -0.96875q0.890625 -1.421875 0.890625 -5.40625q0 -4.109375 -0.96875 -5.609375q-0.640625 -1.0 -1.71875 -1.0q-1.71875 0 -2.8125 2.46875l0 8.453125zm21.883545 0.984375q-2.90625 2.546875 -5.203125 2.546875q-1.359375 0 -2.25 -0.890625q-0.890625 -0.890625 -0.890625 -2.21875q0 -1.8125 1.546875 -3.25q1.5625 -1.453125 6.796875 -3.859375l0 -1.59375q0 -1.796875 -0.203125 -2.25q-0.1875 -0.46875 -0.734375 -0.8125q-0.546875 -0.359375 -1.21875 -0.359375q-1.09375 0 -1.8125 0.5q-0.4375 0.296875 -0.4375 0.703125q0 0.359375 0.46875 0.890625q0.640625 0.71875 0.640625 1.390625q0 0.84375 -0.625 1.421875q-0.609375 0.578125 -1.609375 0.578125q-1.0625 0 -1.78125 -0.640625q-0.71875 -0.640625 -0.71875 -1.5q0 -1.21875 0.96875 -2.328125q0.96875 -1.109375 2.6875 -1.703125q1.734375 -0.59375 3.59375 -0.59375q2.25 0 3.5625 0.953125q1.3125 0.953125 1.703125 2.078125q0.234375 0.703125 0.234375 3.265625l0 6.140625q0 1.078125 0.078125 1.359375q0.09375 0.28125 0.25 0.421875q0.171875 0.125 0.390625 0.125q0.4375 0 0.90625 -0.625l0.5 0.40625q-0.84375 1.265625 -1.75 1.828125q-0.90625 0.5625 -2.046875 0.5625q-1.359375 0 -2.125 -0.625q-0.765625 -0.640625 -0.921875 -1.921875zm0 -1.25l0 -5.28125q-2.046875 1.1875 -3.046875 2.5625q-0.671875 0.921875 -0.671875 1.84375q0 0.78125 0.5625 1.375q0.421875 0.453125 1.1875 0.453125q0.84375 0 1.96875 -0.953125zm21.5 -0.5l0.53125 0.40625q-1.125 2.09375 -2.796875 3.125q-1.65625 1.015625 -3.53125 1.015625q-3.171875 0 -5.078125 -2.375q-1.890625 -2.390625 -1.890625 -5.75q0 -3.21875 1.734375 -5.671875q2.078125 -2.96875 5.734375 -2.96875q2.453125 0 3.890625 1.234375q1.453125 1.234375 1.453125 2.765625q0 0.953125 -0.578125 1.53125q-0.578125 0.578125 -1.53125 0.578125q-1.0 0 -1.65625 -0.65625q-0.640625 -0.65625 -0.796875 -2.359375q-0.109375 -1.0625 -0.5 -1.484375q-0.375 -0.421875 -0.90625 -0.421875q-0.8125 0 -1.390625 0.859375q-0.875 1.296875 -0.875 4.0q0 2.234375 0.703125 4.28125q0.71875 2.03125 1.953125 3.03125q0.921875 0.71875 2.203125 0.71875q0.828125 0 1.5625 -0.390625q0.75 -0.390625 1.765625 -1.46875zm8.75708 -17.53125l0 5.78125l3.75 0l0 1.6875l-3.75 0l0 9.765625q0 1.359375 0.125 1.765625q0.125 0.390625 0.4375 0.640625q0.328125 0.25 0.59375 0.25q1.109375 0 2.078125 -1.6875l0.515625 0.375q-1.375 3.25 -4.453125 3.25q-1.5 0 -2.546875 -0.828125q-1.03125 -0.84375 -1.328125 -1.875q-0.171875 -0.578125 -0.171875 -3.109375l0 -8.546875l-2.0625 0l0 -0.59375q2.140625 -1.515625 3.625 -3.171875q1.5 -1.65625 2.625 -3.703125l0.5625 0zm15.2595825 5.34375l0.25 5.40625l-0.578125 0q-1.03125 -2.40625 -2.140625 -3.28125q-1.109375 -0.890625 -2.203125 -0.890625q-0.703125 0 -1.1875 0.46875q-0.484375 0.46875 -0.484375 1.078125q0 0.453125 0.328125 0.875q0.546875 0.703125 3.03125 2.390625q2.484375 1.671875 3.265625 2.859375q0.796875 1.171875 0.796875 2.625q0 1.3125 -0.65625 2.59375q-0.65625 1.265625 -1.859375 1.9375q-1.203125 0.671875 -2.65625 0.671875q-1.140625 0 -3.03125 -0.703125q-0.515625 -0.1875 -0.703125 -0.1875q-0.546875 0 -0.921875 0.84375l-0.5625 0l-0.265625 -5.6875l0.578125 0q0.75 2.234375 2.078125 3.359375q1.328125 1.109375 2.515625 1.109375q0.8125 0 1.328125 -0.5q0.515625 -0.5 0.515625 -1.203125q0 -0.8125 -0.515625 -1.40625q-0.5 -0.59375 -2.25 -1.796875q-2.59375 -1.796875 -3.359375 -2.734375q-1.109375 -1.390625 -1.109375 -3.0625q0 -1.828125 1.25 -3.3125q1.265625 -1.484375 3.65625 -1.484375q1.28125 0 2.484375 0.625q0.453125 0.25 0.75 0.25q0.296875 0 0.484375 -0.125q0.1875 -0.125 0.59375 -0.71875l0.578125 0z" fill-rule="nonzero"/><g filter="url(#shadowFilter-g2ebf029769f_0_20.1)"><use xlink:href="#g2ebf029769f_0_20.1" transform="matrix(1.0 0.0 0.0 1.0 0.0 1.0)"/></g><defs><filter id="shadowFilter-g2ebf029769f_0_20.1" filterUnits="userSpaceOnUse"><feGaussianBlur in="SourceAlpha" stdDeviation="2.5" result="blur"/><feComponentTransfer in="blur" color-interpolation-filters="sRGB"><feFuncR type="linear" slope="0" intercept="0.0"/><feFuncG type="linear" slope="0" intercept="0.0"/><feFuncB type="linear" slope="0" intercept="0.0"/><feFuncA type="linear" slope="0.4" intercept="0"/></feComponentTransfer></filter></defs><g id="g2ebf029769f_0_20.1"><path fill="#085630" d="m479.89014 114.06259l0 0c50.365295 0.21122742 96.808105 27.22348 121.894714 70.89688c25.086609 43.673386 25.021606 97.40042 -0.1706543 141.01294l-23.391785 -13.511963c20.37445 -35.272095 20.427063 -78.72435 0.13800049 -114.045654c-20.289062 -35.32129 -57.85016 -57.167725 -98.58356 -57.338562z" fill-rule="evenodd"/></g><g filter="url(#shadowFilter-g2ebf029769f_0_20.2)"><use xlink:href="#g2ebf029769f_0_20.2" transform="matrix(1.0 0.0 0.0 1.0 0.0 1.0)"/></g><defs><filter id="shadowFilter-g2ebf029769f_0_20.2" filterUnits="userSpaceOnUse"><feGaussianBlur in="SourceAlpha" stdDeviation="2.5" result="blur"/><feComponentTransfer in="blur" color-interpolation-filters="sRGB"><feFuncR type="linear" slope="0" intercept="0.0"/><feFuncG type="linear" slope="0" intercept="0.0"/><feFuncB type="linear" slope="0" intercept="0.0"/><feFuncA type="linear" slope="0.4" intercept="0"/></feComponentTransfer></filter></defs><g id="g2ebf029769f_0_20.2"><path fill="#65f0ac" d="m481.63104 114.07713l0 0c-49.905365 -0.74607086 -96.49997 24.899338 -122.56888 67.4612c-26.068909 42.56186 -27.741943 95.7215 -4.401001 139.83838l23.425934 -12.393951c-18.961731 -35.83969 -17.6026 -79.02551 3.5752563 -113.60191c21.177887 -34.5764 59.030426 -55.410233 99.57251 -54.80414z" fill-rule="evenodd"/></g><path fill="#65f0ac" d="m506.15225 126.92685l-26.960632 26.960632l0 -53.921257z" fill-rule="evenodd"/><g filter="url(#shadowFilter-g2ebf029769f_0_20.3)"><use xlink:href="#g2ebf029769f_0_20.3" transform="matrix(1.0 0.0 0.0 1.0 0.0 1.0)"/></g><defs><filter id="shadowFilter-g2ebf029769f_0_20.3" filterUnits="userSpaceOnUse"><feGaussianBlur in="SourceAlpha" stdDeviation="2.5" result="blur"/><feComponentTransfer in="blur" color-interpolation-filters="sRGB"><feFuncR type="linear" slope="0" intercept="0.0"/><feFuncG type="linear" slope="0" intercept="0.0"/><feFuncB type="linear" slope="0" intercept="0.0"/><feFuncA type="linear" slope="0.4" intercept="0"/></feComponentTransfer></filter></defs><g id="g2ebf029769f_0_20.3"><path fill="#0e9453" d="m355.4071 322.74353l0 0c24.115753 44.203247 69.943726 72.22171 120.28024 73.53732c50.336517 1.3156128 97.56552 -24.27069 123.95743 -67.15384l-22.646423 -13.937439l0 0c-21.422302 34.808258 -59.758057 55.57666 -100.61624 54.50876c-40.858124 -1.0678711 -78.0567 -23.810455 -97.63147 -59.690216z" fill-rule="evenodd"/></g><path fill="#085630" d="m581.5076 336.1279l-9.669312 -31.370056l41.039368 21.700775z" fill-rule="evenodd"/><path fill="#0e9453" d="m354.11447 294.45685l36.692932 10.519684l-47.212616 26.173248z" fill-rule="evenodd"/></g></svg>